M48
; DRILL file {KiCad (5.1.5)-3} date 27/10/2020 23:20:55
; FORMAT={-:-/ absolute / inch / decimal}
; #@! TF.CreationDate,2020-10-27T23:20:55+01:00
; #@! TF.GenerationSoftware,Kicad,Pcbnew,(5.1.5)-3
; #@! TF.FileFunction,Plated,1,4,PTH
FMAT,2
INCH
T1C0.0118
T2C0.0157
T3C0.0197
T4C0.0315
T5C0.0394
T6C0.0630
T7C0.0866
T8C0.1260
%
G90
G05
T1
X2.2717Y-3.1939
X2.2887Y-3.3537
X2.3199Y-3.1063
X2.435Y-3.0591
X2.4449Y-3.4902
X2.4518Y-3.1368
X2.5207Y-3.3307
X2.5404Y-3.5915
X2.5546Y-3.3465
X2.5719Y-3.1604
X2.5738Y-2.8533
X2.5856Y-3.4301
X2.6368Y-3.9557
X2.6703Y-3.9872
X2.7116Y-2.9331
X2.7136Y-3.8041
X2.7392Y-3.3622
X2.749Y-4.1732
X2.751Y-4.2884
X2.7608Y-3.0
X2.8986Y-2.9281
X2.9006Y-3.8002
X2.9006Y-3.9852
X2.9144Y-3.063
X2.9301Y-4.0069
X2.9498Y-4.0974
X2.9644Y-3.9293
X2.9695Y-2.6191
X2.9705Y-3.0709
X2.9715Y-4.3307
X2.9803Y-3.8691
X2.9852Y-4.1496
X2.9902Y-3.9892
X3.0187Y-3.9656
X3.0277Y-3.9008
X3.0305Y-4.3455
X3.0689Y-4.0974
X3.0699Y-4.3455
X3.0925Y-4.2913
X3.0974Y-4.5246
X3.1004Y-4.2254
X3.1024Y-3.31
X3.1033Y-4.1467
X3.1693Y-3.8406
X3.1811Y-3.8799
X3.188Y-3.9646
X3.2215Y-4.4793
X3.2707Y-4.1526
X3.2707Y-4.2805
X3.3071Y-4.3445
X3.3297Y-2.9291
X3.4833Y-3.19
X3.5354Y-3.9646
X3.5354Y-4.0315
X3.5768Y-3.2067
X3.5827Y-3.251
X3.6752Y-3.7156
X3.7106Y-3.2411
X3.7539Y-3.2579
X3.7874Y-3.9331
X3.7874Y-3.9961
X3.8425Y-4.0551
X4.0177Y-4.0256
X4.0423Y-3.1909
X4.065Y-3.3199
X4.0826Y-3.1869
X4.1644Y-2.873
X4.2402Y-3.0433
X4.4665Y-2.874
X4.5128Y-2.8219
T2
X2.126Y-2.2047
X2.1417Y-1.7756
X2.4567Y-2.2992
X2.4606Y-1.7913
X2.4921Y-1.2953
X2.6102Y-1.8268
X2.6299Y-2.2362
X2.6378Y-1.2559
X2.748Y-2.0669
X2.7756Y-2.7362
X2.874Y-4.1929
X2.874Y-4.2717
X2.8936Y-4.3503
X2.9134Y-2.1969
X2.9331Y-2.4291
X2.9528Y-1.748
X2.9528Y-2.7362
X3.0118Y-1.8661
X3.0906Y-0.9449
X3.1299Y-2.7362
X3.2441Y-2.0315
X3.2598Y-1.2638
X3.2953Y-2.2913
X3.2992Y-1.811
X3.3898Y-1.2717
X3.4331Y-1.8228
X3.437Y-2.1102
X3.5157Y-2.6732
X3.563Y-2.8543
X3.5709Y-3.1614
X3.5984Y-2.9055
X3.6417Y-3.0512
X3.7205Y-3.3268
X3.7559Y-3.6339
X3.7638Y-3.7047
X3.8071Y-3.7362
X3.9055Y-3.8543
X3.9432Y-3.1791
X3.9449Y-1.9488
X3.9469Y-2.9626
X3.9724Y-1.4252
X4.0197Y-1.2087
X4.1142Y-2.2283
X4.2756Y-1.9409
X4.3504Y-2.1969
X4.6496Y-1.2638
X4.6496Y-2.2323
X4.8386Y-2.0827
X4.8504Y-1.378
X1.935Y-2.0
X1.9541Y-1.9541
X1.9541Y-2.0459
X2.0Y-1.935
X2.0Y-2.065
X2.0459Y-1.9541
X2.0459Y-2.0459
X2.065Y-2.0
X1.9429Y-4.3189
X1.9619Y-4.273
X1.9619Y-4.3648
X2.0079Y-4.2539
X2.0079Y-4.3839
X2.0538Y-4.273
X2.0538Y-4.3648
X2.0728Y-4.3189
X1.935Y-2.25
X1.9541Y-2.2041
X1.9541Y-2.2959
X2.0Y-2.185
X2.0Y-2.315
X2.0459Y-2.2041
X2.0459Y-2.2959
X2.065Y-2.25
X1.9429Y-2.6772
X1.9619Y-2.6312
X1.9619Y-2.7231
X2.0079Y-2.6122
X2.0079Y-2.7421
X2.0538Y-2.6312
X2.0538Y-2.7231
X2.0728Y-2.6772
X1.9429Y-3.7402
X1.9619Y-3.6942
X1.9619Y-3.7861
X2.0079Y-3.6752
X2.0079Y-3.8051
X2.0538Y-3.6942
X2.0538Y-3.7861
X2.0728Y-3.7402
X1.9429Y-3.0315
X1.9619Y-2.9856
X1.9619Y-3.0774
X2.0079Y-2.9665
X2.0079Y-3.0965
X2.0538Y-2.9856
X2.0538Y-3.0774
X2.0728Y-3.0315
X4.6319Y-4.5
X4.6509Y-4.4541
X4.6509Y-4.5459
X4.6969Y-4.435
X4.6969Y-4.565
X4.7428Y-4.4541
X4.7428Y-4.5459
X4.7618Y-4.5
X4.3169Y-4.5
X4.336Y-4.4541
X4.336Y-4.5459
X4.3819Y-4.435
X4.3819Y-4.565
X4.4278Y-4.4541
X4.4278Y-4.5459
X4.4469Y-4.5
X1.9429Y-3.3858
X1.9619Y-3.3399
X1.9619Y-3.4318
X2.0079Y-3.3209
X2.0079Y-3.4508
X2.0538Y-3.3399
X2.0538Y-3.4318
X2.0728Y-3.3858
X1.9429Y-4.0157
X1.9619Y-3.9698
X1.9619Y-4.0617
X2.0079Y-3.9508
X2.0079Y-4.0807
X2.0538Y-3.9698
X2.0538Y-4.0617
X2.0728Y-4.0157
X1.935Y-1.75
X1.9541Y-1.7041
X1.9541Y-1.7959
X2.0Y-1.685
X2.0Y-1.815
X2.0459Y-1.7041
X2.0459Y-1.7959
X2.065Y-1.75
T3
X2.6171Y-2.5522
X2.9055Y-3.6309
X3.2077Y-4.0797
X3.2352Y-3.6909
X3.309Y-4.0472
X3.312Y-3.3248
X3.3701Y-3.4921
X3.3868Y-4.0266
X3.6053Y-3.5591
X4.0138Y-2.0177
X4.1309Y-2.5453
X4.1693Y-2.6348
X4.3789Y-2.6713
X4.3819Y-2.2392
X4.5089Y-1.628
X4.6427Y-2.7224
X1.6772Y-0.9843
X1.7048Y-0.9174
X1.7048Y-1.0511
X1.7717Y-0.8898
X1.7717Y-1.0787
X1.8385Y-0.9174
X1.8385Y-1.0511
X1.8661Y-0.9843
X1.6772Y-4.5276
X1.7048Y-4.4607
X1.7048Y-4.5944
X1.7717Y-4.4331
X1.7717Y-4.622
X1.8385Y-4.4607
X1.8385Y-4.5944
X1.8661Y-4.5276
X5.0236Y-0.9843
X5.0513Y-0.9174
X5.0513Y-1.0511
X5.1181Y-0.8898
X5.1181Y-1.0787
X5.1849Y-0.9174
X5.1849Y-1.0511
X5.2126Y-0.9843
X5.0236Y-4.5276
X5.0513Y-4.4607
X5.0513Y-4.5944
X5.1181Y-4.4331
X5.1181Y-4.622
X5.1849Y-4.4607
X5.1849Y-4.5944
X5.2126Y-4.5276
T4
X4.1717Y-2.4685
X4.2717Y-2.4685
X4.3717Y-2.4685
T5
X4.8543Y-3.3976
X4.8543Y-3.4976
X4.8543Y-3.5976
X4.8543Y-3.6976
X4.8543Y-3.7976
X4.8543Y-3.8976
X4.8543Y-3.9976
X4.8543Y-4.0976
X4.8543Y-4.1976
X4.8543Y-4.2976
X4.5039Y-4.3465
X4.6039Y-4.3465
X3.6358Y-1.2484
X3.6358Y-1.3484
X4.9724Y-1.6555
X4.9724Y-1.7555
X4.9724Y-1.8555
X2.2244Y-1.9094
X2.2244Y-2.0094
X2.2244Y-2.1094
X2.1654Y-4.122
X2.1654Y-4.222
X5.0118Y-2.2677
X5.0118Y-2.3677
X5.0118Y-2.4677
X5.0118Y-2.5677
X5.0118Y-2.6677
X5.0118Y-2.7677
X5.0118Y-2.8677
X5.0118Y-2.9677
X5.0118Y-3.0677
X5.0118Y-3.1677
X2.1654Y-2.8134
X2.1654Y-2.9134
X4.8543Y-2.2677
X4.8543Y-2.3677
X4.8543Y-2.4677
X4.8543Y-2.5677
X4.8543Y-2.6677
X4.8543Y-2.7677
X4.8543Y-2.8677
X4.8543Y-2.9677
X4.8543Y-3.0677
X4.8543Y-3.1677
X5.0118Y-3.3976
X5.0118Y-3.4976
X5.0118Y-3.5976
X5.0118Y-3.6976
X5.0118Y-3.7976
X5.0118Y-3.8976
X5.0118Y-3.9976
X5.0118Y-4.0976
X5.0118Y-4.1976
X5.0118Y-4.2976
X3.6949Y-1.9594
X3.6949Y-2.0594
X3.6949Y-2.1594
X4.5575Y-2.561
X4.6575Y-2.561
X2.1654Y-3.522
X2.1654Y-3.622
T6
X3.5236Y-1.5354
X3.0079Y-3.7165
X2.378Y-3.9803
X2.2402Y-2.5551
X4.5669Y-2.4016
X3.5906Y-4.2795
X3.752Y-1.6614
X3.7126Y-2.4449
X5.1102Y-1.4803
X3.9961Y-1.7047
X5.1102Y-2.0236
T7
X2.0Y-2.0
X2.0079Y-4.3189
X2.0Y-2.25
X2.0079Y-2.6772
X2.0079Y-3.7402
X2.0079Y-3.0315
X4.6969Y-4.5
X4.3819Y-4.5
X2.0079Y-3.3858
X2.0079Y-4.0157
X2.0Y-1.75
T8
X1.7717Y-0.9843
X1.7717Y-4.5276
X5.1181Y-0.9843
X5.1181Y-4.5276
T0
M30
