G04 #@! TF.GenerationSoftware,KiCad,Pcbnew,(5.1.5)-3*
G04 #@! TF.CreationDate,2020-10-28T22:24:30+01:00*
G04 #@! TF.ProjectId,converters_1,636f6e76-6572-4746-9572-735f312e6b69,rev?*
G04 #@! TF.SameCoordinates,Original*
G04 #@! TF.FileFunction,Legend,Bot*
G04 #@! TF.FilePolarity,Positive*
%FSLAX46Y46*%
G04 Gerber Fmt 4.6, Leading zero omitted, Abs format (unit mm)*
G04 Created by KiCad (PCBNEW (5.1.5)-3) date 2020-10-28 22:24:30*
%MOMM*%
%LPD*%
G04 APERTURE LIST*
%ADD10C,0.300000*%
G04 APERTURE END LIST*
D10*
X106240476Y-115295238D02*
X106145238Y-115200000D01*
X105954761Y-115104761D01*
X105478571Y-115104761D01*
X105288095Y-115200000D01*
X105192857Y-115295238D01*
X105097619Y-115485714D01*
X105097619Y-115676190D01*
X105192857Y-115961904D01*
X106335714Y-117104761D01*
X105097619Y-117104761D01*
X104430952Y-115104761D02*
X103097619Y-115104761D01*
X103954761Y-117104761D01*
X102335714Y-116914285D02*
X102240476Y-117009523D01*
X102335714Y-117104761D01*
X102430952Y-117009523D01*
X102335714Y-116914285D01*
X102335714Y-117104761D01*
X100335714Y-117104761D02*
X101478571Y-117104761D01*
X100907142Y-117104761D02*
X100907142Y-115104761D01*
X101097619Y-115390476D01*
X101288095Y-115580952D01*
X101478571Y-115676190D01*
X99097619Y-115104761D02*
X98907142Y-115104761D01*
X98716666Y-115200000D01*
X98621428Y-115295238D01*
X98526190Y-115485714D01*
X98430952Y-115866666D01*
X98430952Y-116342857D01*
X98526190Y-116723809D01*
X98621428Y-116914285D01*
X98716666Y-117009523D01*
X98907142Y-117104761D01*
X99097619Y-117104761D01*
X99288095Y-117009523D01*
X99383333Y-116914285D01*
X99478571Y-116723809D01*
X99573809Y-116342857D01*
X99573809Y-115866666D01*
X99478571Y-115485714D01*
X99383333Y-115295238D01*
X99288095Y-115200000D01*
X99097619Y-115104761D01*
X97573809Y-116914285D02*
X97478571Y-117009523D01*
X97573809Y-117104761D01*
X97669047Y-117009523D01*
X97573809Y-116914285D01*
X97573809Y-117104761D01*
X96716666Y-115295238D02*
X96621428Y-115200000D01*
X96430952Y-115104761D01*
X95954761Y-115104761D01*
X95764285Y-115200000D01*
X95669047Y-115295238D01*
X95573809Y-115485714D01*
X95573809Y-115676190D01*
X95669047Y-115961904D01*
X96811904Y-117104761D01*
X95573809Y-117104761D01*
X94335714Y-115104761D02*
X94145238Y-115104761D01*
X93954761Y-115200000D01*
X93859523Y-115295238D01*
X93764285Y-115485714D01*
X93669047Y-115866666D01*
X93669047Y-116342857D01*
X93764285Y-116723809D01*
X93859523Y-116914285D01*
X93954761Y-117009523D01*
X94145238Y-117104761D01*
X94335714Y-117104761D01*
X94526190Y-117009523D01*
X94621428Y-116914285D01*
X94716666Y-116723809D01*
X94811904Y-116342857D01*
X94811904Y-115866666D01*
X94716666Y-115485714D01*
X94621428Y-115295238D01*
X94526190Y-115200000D01*
X94335714Y-115104761D01*
X92907142Y-115295238D02*
X92811904Y-115200000D01*
X92621428Y-115104761D01*
X92145238Y-115104761D01*
X91954761Y-115200000D01*
X91859523Y-115295238D01*
X91764285Y-115485714D01*
X91764285Y-115676190D01*
X91859523Y-115961904D01*
X93002380Y-117104761D01*
X91764285Y-117104761D01*
X90526190Y-115104761D02*
X90335714Y-115104761D01*
X90145238Y-115200000D01*
X90050000Y-115295238D01*
X89954761Y-115485714D01*
X89859523Y-115866666D01*
X89859523Y-116342857D01*
X89954761Y-116723809D01*
X90050000Y-116914285D01*
X90145238Y-117009523D01*
X90335714Y-117104761D01*
X90526190Y-117104761D01*
X90716666Y-117009523D01*
X90811904Y-116914285D01*
X90907142Y-116723809D01*
X91002380Y-116342857D01*
X91002380Y-115866666D01*
X90907142Y-115485714D01*
X90811904Y-115295238D01*
X90716666Y-115200000D01*
X90526190Y-115104761D01*
X103353571Y-113154761D02*
X103353571Y-111154761D01*
X103353571Y-112107142D02*
X102210714Y-112107142D01*
X102210714Y-113154761D02*
X102210714Y-111154761D01*
X101544047Y-111154761D02*
X100401190Y-111154761D01*
X100972619Y-113154761D02*
X100972619Y-111154761D01*
X97544047Y-112107142D02*
X97258333Y-112202380D01*
X97163095Y-112297619D01*
X97067857Y-112488095D01*
X97067857Y-112773809D01*
X97163095Y-112964285D01*
X97258333Y-113059523D01*
X97448809Y-113154761D01*
X98210714Y-113154761D01*
X98210714Y-111154761D01*
X97544047Y-111154761D01*
X97353571Y-111250000D01*
X97258333Y-111345238D01*
X97163095Y-111535714D01*
X97163095Y-111726190D01*
X97258333Y-111916666D01*
X97353571Y-112011904D01*
X97544047Y-112107142D01*
X98210714Y-112107142D01*
X95925000Y-113154761D02*
X96115476Y-113059523D01*
X96210714Y-112869047D01*
X96210714Y-111154761D01*
X94877380Y-113154761D02*
X95067857Y-113059523D01*
X95163095Y-112964285D01*
X95258333Y-112773809D01*
X95258333Y-112202380D01*
X95163095Y-112011904D01*
X95067857Y-111916666D01*
X94877380Y-111821428D01*
X94591666Y-111821428D01*
X94401190Y-111916666D01*
X94305952Y-112011904D01*
X94210714Y-112202380D01*
X94210714Y-112773809D01*
X94305952Y-112964285D01*
X94401190Y-113059523D01*
X94591666Y-113154761D01*
X94877380Y-113154761D01*
X92496428Y-111821428D02*
X92496428Y-113440476D01*
X92591666Y-113630952D01*
X92686904Y-113726190D01*
X92877380Y-113821428D01*
X93163095Y-113821428D01*
X93353571Y-113726190D01*
X92496428Y-113059523D02*
X92686904Y-113154761D01*
X93067857Y-113154761D01*
X93258333Y-113059523D01*
X93353571Y-112964285D01*
X93448809Y-112773809D01*
X93448809Y-112202380D01*
X93353571Y-112011904D01*
X93258333Y-111916666D01*
X93067857Y-111821428D01*
X92686904Y-111821428D01*
X92496428Y-111916666D01*
M02*
