G04 #@! TF.GenerationSoftware,KiCad,Pcbnew,(5.1.5)-3*
G04 #@! TF.CreationDate,2020-10-27T23:20:52+01:00*
G04 #@! TF.ProjectId,converters_1,636f6e76-6572-4746-9572-735f312e6b69,rev?*
G04 #@! TF.SameCoordinates,Original*
G04 #@! TF.FileFunction,Soldermask,Bot*
G04 #@! TF.FilePolarity,Negative*
%FSLAX46Y46*%
G04 Gerber Fmt 4.6, Leading zero omitted, Abs format (unit mm)*
G04 Created by KiCad (PCBNEW (5.1.5)-3) date 2020-10-27 23:20:52*
%MOMM*%
%LPD*%
G04 APERTURE LIST*
%ADD10C,0.100000*%
G04 APERTURE END LIST*
D10*
G36*
X130634239Y-111811467D02*
G01*
X130948282Y-111873934D01*
X131539926Y-112119001D01*
X131829523Y-112312504D01*
X132072391Y-112474783D01*
X132525217Y-112927609D01*
X132540388Y-112950314D01*
X132880999Y-113460074D01*
X133126066Y-114051718D01*
X133126066Y-114051719D01*
X133251000Y-114679803D01*
X133251000Y-115320197D01*
X133213997Y-115506221D01*
X133126066Y-115948282D01*
X132880999Y-116539926D01*
X132525216Y-117072392D01*
X132072392Y-117525216D01*
X131539926Y-117880999D01*
X130948282Y-118126066D01*
X130634239Y-118188533D01*
X130320197Y-118251000D01*
X129679803Y-118251000D01*
X129365761Y-118188533D01*
X129051718Y-118126066D01*
X128460074Y-117880999D01*
X127927608Y-117525216D01*
X127474784Y-117072392D01*
X127119001Y-116539926D01*
X126873934Y-115948282D01*
X126786003Y-115506221D01*
X126749000Y-115320197D01*
X126749000Y-114679803D01*
X126873934Y-114051719D01*
X126873934Y-114051718D01*
X127119001Y-113460074D01*
X127459612Y-112950314D01*
X127474783Y-112927609D01*
X127927609Y-112474783D01*
X128170477Y-112312504D01*
X128460074Y-112119001D01*
X129051718Y-111873934D01*
X129365761Y-111811467D01*
X129679803Y-111749000D01*
X130320197Y-111749000D01*
X130634239Y-111811467D01*
G37*
G36*
X45634239Y-111811467D02*
G01*
X45948282Y-111873934D01*
X46539926Y-112119001D01*
X46829523Y-112312504D01*
X47072391Y-112474783D01*
X47525217Y-112927609D01*
X47540388Y-112950314D01*
X47880999Y-113460074D01*
X48126066Y-114051718D01*
X48126066Y-114051719D01*
X48251000Y-114679803D01*
X48251000Y-115320197D01*
X48213997Y-115506221D01*
X48126066Y-115948282D01*
X47880999Y-116539926D01*
X47525216Y-117072392D01*
X47072392Y-117525216D01*
X46539926Y-117880999D01*
X45948282Y-118126066D01*
X45634239Y-118188533D01*
X45320197Y-118251000D01*
X44679803Y-118251000D01*
X44365761Y-118188533D01*
X44051718Y-118126066D01*
X43460074Y-117880999D01*
X42927608Y-117525216D01*
X42474784Y-117072392D01*
X42119001Y-116539926D01*
X41873934Y-115948282D01*
X41786003Y-115506221D01*
X41749000Y-115320197D01*
X41749000Y-114679803D01*
X41873934Y-114051719D01*
X41873934Y-114051718D01*
X42119001Y-113460074D01*
X42459612Y-112950314D01*
X42474783Y-112927609D01*
X42927609Y-112474783D01*
X43170477Y-112312504D01*
X43460074Y-112119001D01*
X44051718Y-111873934D01*
X44365761Y-111811467D01*
X44679803Y-111749000D01*
X45320197Y-111749000D01*
X45634239Y-111811467D01*
G37*
G36*
X119575880Y-112059776D02*
G01*
X119956593Y-112135504D01*
X120366249Y-112305189D01*
X120734929Y-112551534D01*
X121048466Y-112865071D01*
X121294811Y-113233751D01*
X121464496Y-113643407D01*
X121551000Y-114078296D01*
X121551000Y-114521704D01*
X121464496Y-114956593D01*
X121294811Y-115366249D01*
X121048466Y-115734929D01*
X120734929Y-116048466D01*
X120366249Y-116294811D01*
X119956593Y-116464496D01*
X119577387Y-116539924D01*
X119521705Y-116551000D01*
X119078295Y-116551000D01*
X119022613Y-116539924D01*
X118643407Y-116464496D01*
X118233751Y-116294811D01*
X117865071Y-116048466D01*
X117551534Y-115734929D01*
X117305189Y-115366249D01*
X117135504Y-114956593D01*
X117049000Y-114521704D01*
X117049000Y-114078296D01*
X117135504Y-113643407D01*
X117305189Y-113233751D01*
X117551534Y-112865071D01*
X117865071Y-112551534D01*
X118233751Y-112305189D01*
X118643407Y-112135504D01*
X119024120Y-112059776D01*
X119078295Y-112049000D01*
X119521705Y-112049000D01*
X119575880Y-112059776D01*
G37*
G36*
X111575880Y-112059776D02*
G01*
X111956593Y-112135504D01*
X112366249Y-112305189D01*
X112734929Y-112551534D01*
X113048466Y-112865071D01*
X113294811Y-113233751D01*
X113464496Y-113643407D01*
X113551000Y-114078296D01*
X113551000Y-114521704D01*
X113464496Y-114956593D01*
X113294811Y-115366249D01*
X113048466Y-115734929D01*
X112734929Y-116048466D01*
X112366249Y-116294811D01*
X111956593Y-116464496D01*
X111577387Y-116539924D01*
X111521705Y-116551000D01*
X111078295Y-116551000D01*
X111022613Y-116539924D01*
X110643407Y-116464496D01*
X110233751Y-116294811D01*
X109865071Y-116048466D01*
X109551534Y-115734929D01*
X109305189Y-115366249D01*
X109135504Y-114956593D01*
X109049000Y-114521704D01*
X109049000Y-114078296D01*
X109135504Y-113643407D01*
X109305189Y-113233751D01*
X109551534Y-112865071D01*
X109865071Y-112551534D01*
X110233751Y-112305189D01*
X110643407Y-112135504D01*
X111024120Y-112059776D01*
X111078295Y-112049000D01*
X111521705Y-112049000D01*
X111575880Y-112059776D01*
G37*
G36*
X51275880Y-107459776D02*
G01*
X51656593Y-107535504D01*
X52066249Y-107705189D01*
X52434929Y-107951534D01*
X52748466Y-108265071D01*
X52994811Y-108633751D01*
X53164496Y-109043407D01*
X53251000Y-109478296D01*
X53251000Y-109921704D01*
X53164496Y-110356593D01*
X52994811Y-110766249D01*
X52748466Y-111134929D01*
X52434929Y-111448466D01*
X52066249Y-111694811D01*
X51656593Y-111864496D01*
X51275880Y-111940224D01*
X51221705Y-111951000D01*
X50778295Y-111951000D01*
X50724120Y-111940224D01*
X50343407Y-111864496D01*
X49933751Y-111694811D01*
X49565071Y-111448466D01*
X49251534Y-111134929D01*
X49005189Y-110766249D01*
X48835504Y-110356593D01*
X48749000Y-109921704D01*
X48749000Y-109478296D01*
X48835504Y-109043407D01*
X49005189Y-108633751D01*
X49251534Y-108265071D01*
X49565071Y-107951534D01*
X49933751Y-107705189D01*
X50343407Y-107535504D01*
X50724120Y-107459776D01*
X50778295Y-107449000D01*
X51221705Y-107449000D01*
X51275880Y-107459776D01*
G37*
G36*
X117053512Y-109503927D02*
G01*
X117202812Y-109533624D01*
X117366784Y-109601544D01*
X117514354Y-109700147D01*
X117639853Y-109825646D01*
X117738456Y-109973216D01*
X117806376Y-110137188D01*
X117841000Y-110311259D01*
X117841000Y-110488741D01*
X117806376Y-110662812D01*
X117738456Y-110826784D01*
X117639853Y-110974354D01*
X117514354Y-111099853D01*
X117366784Y-111198456D01*
X117202812Y-111266376D01*
X117053512Y-111296073D01*
X117028742Y-111301000D01*
X116851258Y-111301000D01*
X116826488Y-111296073D01*
X116677188Y-111266376D01*
X116513216Y-111198456D01*
X116365646Y-111099853D01*
X116240147Y-110974354D01*
X116141544Y-110826784D01*
X116073624Y-110662812D01*
X116039000Y-110488741D01*
X116039000Y-110311259D01*
X116073624Y-110137188D01*
X116141544Y-109973216D01*
X116240147Y-109825646D01*
X116365646Y-109700147D01*
X116513216Y-109601544D01*
X116677188Y-109533624D01*
X116826488Y-109503927D01*
X116851258Y-109499000D01*
X117028742Y-109499000D01*
X117053512Y-109503927D01*
G37*
G36*
X115301000Y-111301000D02*
G01*
X113499000Y-111301000D01*
X113499000Y-109499000D01*
X115301000Y-109499000D01*
X115301000Y-111301000D01*
G37*
G36*
X91623241Y-107304760D02*
G01*
X91887305Y-107414139D01*
X92124958Y-107572934D01*
X92327066Y-107775042D01*
X92485861Y-108012695D01*
X92595240Y-108276759D01*
X92651000Y-108557088D01*
X92651000Y-108842912D01*
X92595240Y-109123241D01*
X92485861Y-109387305D01*
X92327066Y-109624958D01*
X92124958Y-109827066D01*
X91887305Y-109985861D01*
X91623241Y-110095240D01*
X91342912Y-110151000D01*
X91057088Y-110151000D01*
X90776759Y-110095240D01*
X90512695Y-109985861D01*
X90275042Y-109827066D01*
X90072934Y-109624958D01*
X89914139Y-109387305D01*
X89804760Y-109123241D01*
X89749000Y-108842912D01*
X89749000Y-108557088D01*
X89804760Y-108276759D01*
X89914139Y-108012695D01*
X90072934Y-107775042D01*
X90275042Y-107572934D01*
X90512695Y-107414139D01*
X90776759Y-107304760D01*
X91057088Y-107249000D01*
X91342912Y-107249000D01*
X91623241Y-107304760D01*
G37*
G36*
X123413512Y-108263927D02*
G01*
X123562812Y-108293624D01*
X123726784Y-108361544D01*
X123874354Y-108460147D01*
X123999853Y-108585646D01*
X124098456Y-108733216D01*
X124166376Y-108897188D01*
X124201000Y-109071259D01*
X124201000Y-109248741D01*
X124166376Y-109422812D01*
X124098456Y-109586784D01*
X123999853Y-109734354D01*
X123874354Y-109859853D01*
X123726784Y-109958456D01*
X123562812Y-110026376D01*
X123417091Y-110055361D01*
X123388742Y-110061000D01*
X123211258Y-110061000D01*
X123182909Y-110055361D01*
X123037188Y-110026376D01*
X122873216Y-109958456D01*
X122725646Y-109859853D01*
X122600147Y-109734354D01*
X122501544Y-109586784D01*
X122433624Y-109422812D01*
X122399000Y-109248741D01*
X122399000Y-109071259D01*
X122433624Y-108897188D01*
X122501544Y-108733216D01*
X122600147Y-108585646D01*
X122725646Y-108460147D01*
X122873216Y-108361544D01*
X123037188Y-108293624D01*
X123186488Y-108263927D01*
X123211258Y-108259000D01*
X123388742Y-108259000D01*
X123413512Y-108263927D01*
G37*
G36*
X127413512Y-108263927D02*
G01*
X127562812Y-108293624D01*
X127726784Y-108361544D01*
X127874354Y-108460147D01*
X127999853Y-108585646D01*
X128098456Y-108733216D01*
X128166376Y-108897188D01*
X128201000Y-109071259D01*
X128201000Y-109248741D01*
X128166376Y-109422812D01*
X128098456Y-109586784D01*
X127999853Y-109734354D01*
X127874354Y-109859853D01*
X127726784Y-109958456D01*
X127562812Y-110026376D01*
X127417091Y-110055361D01*
X127388742Y-110061000D01*
X127211258Y-110061000D01*
X127182909Y-110055361D01*
X127037188Y-110026376D01*
X126873216Y-109958456D01*
X126725646Y-109859853D01*
X126600147Y-109734354D01*
X126501544Y-109586784D01*
X126433624Y-109422812D01*
X126399000Y-109248741D01*
X126399000Y-109071259D01*
X126433624Y-108897188D01*
X126501544Y-108733216D01*
X126600147Y-108585646D01*
X126725646Y-108460147D01*
X126873216Y-108361544D01*
X127037188Y-108293624D01*
X127186488Y-108263927D01*
X127211258Y-108259000D01*
X127388742Y-108259000D01*
X127413512Y-108263927D01*
G37*
G36*
X55113512Y-106343927D02*
G01*
X55262812Y-106373624D01*
X55426784Y-106441544D01*
X55574354Y-106540147D01*
X55699853Y-106665646D01*
X55798456Y-106813216D01*
X55866376Y-106977188D01*
X55901000Y-107151259D01*
X55901000Y-107328741D01*
X55866376Y-107502812D01*
X55798456Y-107666784D01*
X55699853Y-107814354D01*
X55574354Y-107939853D01*
X55426784Y-108038456D01*
X55262812Y-108106376D01*
X55113512Y-108136073D01*
X55088742Y-108141000D01*
X54911258Y-108141000D01*
X54886488Y-108136073D01*
X54737188Y-108106376D01*
X54573216Y-108038456D01*
X54425646Y-107939853D01*
X54300147Y-107814354D01*
X54201544Y-107666784D01*
X54133624Y-107502812D01*
X54099000Y-107328741D01*
X54099000Y-107151259D01*
X54133624Y-106977188D01*
X54201544Y-106813216D01*
X54300147Y-106665646D01*
X54425646Y-106540147D01*
X54573216Y-106441544D01*
X54737188Y-106373624D01*
X54886488Y-106343927D01*
X54911258Y-106339000D01*
X55088742Y-106339000D01*
X55113512Y-106343927D01*
G37*
G36*
X123413512Y-105723927D02*
G01*
X123562812Y-105753624D01*
X123726784Y-105821544D01*
X123874354Y-105920147D01*
X123999853Y-106045646D01*
X124098456Y-106193216D01*
X124166376Y-106357188D01*
X124201000Y-106531259D01*
X124201000Y-106708741D01*
X124166376Y-106882812D01*
X124098456Y-107046784D01*
X123999853Y-107194354D01*
X123874354Y-107319853D01*
X123726784Y-107418456D01*
X123562812Y-107486376D01*
X123413512Y-107516073D01*
X123388742Y-107521000D01*
X123211258Y-107521000D01*
X123186488Y-107516073D01*
X123037188Y-107486376D01*
X122873216Y-107418456D01*
X122725646Y-107319853D01*
X122600147Y-107194354D01*
X122501544Y-107046784D01*
X122433624Y-106882812D01*
X122399000Y-106708741D01*
X122399000Y-106531259D01*
X122433624Y-106357188D01*
X122501544Y-106193216D01*
X122600147Y-106045646D01*
X122725646Y-105920147D01*
X122873216Y-105821544D01*
X123037188Y-105753624D01*
X123186488Y-105723927D01*
X123211258Y-105719000D01*
X123388742Y-105719000D01*
X123413512Y-105723927D01*
G37*
G36*
X127413512Y-105723927D02*
G01*
X127562812Y-105753624D01*
X127726784Y-105821544D01*
X127874354Y-105920147D01*
X127999853Y-106045646D01*
X128098456Y-106193216D01*
X128166376Y-106357188D01*
X128201000Y-106531259D01*
X128201000Y-106708741D01*
X128166376Y-106882812D01*
X128098456Y-107046784D01*
X127999853Y-107194354D01*
X127874354Y-107319853D01*
X127726784Y-107418456D01*
X127562812Y-107486376D01*
X127413512Y-107516073D01*
X127388742Y-107521000D01*
X127211258Y-107521000D01*
X127186488Y-107516073D01*
X127037188Y-107486376D01*
X126873216Y-107418456D01*
X126725646Y-107319853D01*
X126600147Y-107194354D01*
X126501544Y-107046784D01*
X126433624Y-106882812D01*
X126399000Y-106708741D01*
X126399000Y-106531259D01*
X126433624Y-106357188D01*
X126501544Y-106193216D01*
X126600147Y-106045646D01*
X126725646Y-105920147D01*
X126873216Y-105821544D01*
X127037188Y-105753624D01*
X127186488Y-105723927D01*
X127211258Y-105719000D01*
X127388742Y-105719000D01*
X127413512Y-105723927D01*
G37*
G36*
X55901000Y-105601000D02*
G01*
X54099000Y-105601000D01*
X54099000Y-103799000D01*
X55901000Y-103799000D01*
X55901000Y-105601000D01*
G37*
G36*
X123413512Y-103183927D02*
G01*
X123562812Y-103213624D01*
X123726784Y-103281544D01*
X123874354Y-103380147D01*
X123999853Y-103505646D01*
X124098456Y-103653216D01*
X124166376Y-103817188D01*
X124201000Y-103991259D01*
X124201000Y-104168741D01*
X124166376Y-104342812D01*
X124098456Y-104506784D01*
X123999853Y-104654354D01*
X123874354Y-104779853D01*
X123726784Y-104878456D01*
X123562812Y-104946376D01*
X123413512Y-104976073D01*
X123388742Y-104981000D01*
X123211258Y-104981000D01*
X123186488Y-104976073D01*
X123037188Y-104946376D01*
X122873216Y-104878456D01*
X122725646Y-104779853D01*
X122600147Y-104654354D01*
X122501544Y-104506784D01*
X122433624Y-104342812D01*
X122399000Y-104168741D01*
X122399000Y-103991259D01*
X122433624Y-103817188D01*
X122501544Y-103653216D01*
X122600147Y-103505646D01*
X122725646Y-103380147D01*
X122873216Y-103281544D01*
X123037188Y-103213624D01*
X123186488Y-103183927D01*
X123211258Y-103179000D01*
X123388742Y-103179000D01*
X123413512Y-103183927D01*
G37*
G36*
X127413512Y-103183927D02*
G01*
X127562812Y-103213624D01*
X127726784Y-103281544D01*
X127874354Y-103380147D01*
X127999853Y-103505646D01*
X128098456Y-103653216D01*
X128166376Y-103817188D01*
X128201000Y-103991259D01*
X128201000Y-104168741D01*
X128166376Y-104342812D01*
X128098456Y-104506784D01*
X127999853Y-104654354D01*
X127874354Y-104779853D01*
X127726784Y-104878456D01*
X127562812Y-104946376D01*
X127413512Y-104976073D01*
X127388742Y-104981000D01*
X127211258Y-104981000D01*
X127186488Y-104976073D01*
X127037188Y-104946376D01*
X126873216Y-104878456D01*
X126725646Y-104779853D01*
X126600147Y-104654354D01*
X126501544Y-104506784D01*
X126433624Y-104342812D01*
X126399000Y-104168741D01*
X126399000Y-103991259D01*
X126433624Y-103817188D01*
X126501544Y-103653216D01*
X126600147Y-103505646D01*
X126725646Y-103380147D01*
X126873216Y-103281544D01*
X127037188Y-103213624D01*
X127186488Y-103183927D01*
X127211258Y-103179000D01*
X127388742Y-103179000D01*
X127413512Y-103183927D01*
G37*
G36*
X51275880Y-99759776D02*
G01*
X51656593Y-99835504D01*
X52066249Y-100005189D01*
X52434929Y-100251534D01*
X52748466Y-100565071D01*
X52994811Y-100933751D01*
X53164496Y-101343407D01*
X53215336Y-101599000D01*
X53251000Y-101778295D01*
X53251000Y-102221705D01*
X53247390Y-102239852D01*
X53164496Y-102656593D01*
X52994811Y-103066249D01*
X52748466Y-103434929D01*
X52434929Y-103748466D01*
X52066249Y-103994811D01*
X51656593Y-104164496D01*
X51275880Y-104240224D01*
X51221705Y-104251000D01*
X50778295Y-104251000D01*
X50724120Y-104240224D01*
X50343407Y-104164496D01*
X49933751Y-103994811D01*
X49565071Y-103748466D01*
X49251534Y-103434929D01*
X49005189Y-103066249D01*
X48835504Y-102656593D01*
X48752610Y-102239852D01*
X48749000Y-102221705D01*
X48749000Y-101778295D01*
X48784664Y-101599000D01*
X48835504Y-101343407D01*
X49005189Y-100933751D01*
X49251534Y-100565071D01*
X49565071Y-100251534D01*
X49933751Y-100005189D01*
X50343407Y-99835504D01*
X50724120Y-99759776D01*
X50778295Y-99749000D01*
X51221705Y-99749000D01*
X51275880Y-99759776D01*
G37*
G36*
X60823241Y-99704760D02*
G01*
X61087305Y-99814139D01*
X61324958Y-99972934D01*
X61527066Y-100175042D01*
X61685861Y-100412695D01*
X61795240Y-100676759D01*
X61851000Y-100957088D01*
X61851000Y-101242912D01*
X61795240Y-101523241D01*
X61685861Y-101787305D01*
X61527066Y-102024958D01*
X61324958Y-102227066D01*
X61087305Y-102385861D01*
X60823241Y-102495240D01*
X60542912Y-102551000D01*
X60257088Y-102551000D01*
X59976759Y-102495240D01*
X59712695Y-102385861D01*
X59475042Y-102227066D01*
X59272934Y-102024958D01*
X59114139Y-101787305D01*
X59004760Y-101523241D01*
X58949000Y-101242912D01*
X58949000Y-100957088D01*
X59004760Y-100676759D01*
X59114139Y-100412695D01*
X59272934Y-100175042D01*
X59475042Y-99972934D01*
X59712695Y-99814139D01*
X59976759Y-99704760D01*
X60257088Y-99649000D01*
X60542912Y-99649000D01*
X60823241Y-99704760D01*
G37*
G36*
X123410505Y-100643329D02*
G01*
X123562812Y-100673624D01*
X123726784Y-100741544D01*
X123874354Y-100840147D01*
X123999853Y-100965646D01*
X124098456Y-101113216D01*
X124166376Y-101277188D01*
X124201000Y-101451259D01*
X124201000Y-101628741D01*
X124166376Y-101802812D01*
X124098456Y-101966784D01*
X123999853Y-102114354D01*
X123874354Y-102239853D01*
X123726784Y-102338456D01*
X123562812Y-102406376D01*
X123413512Y-102436073D01*
X123388742Y-102441000D01*
X123211258Y-102441000D01*
X123186488Y-102436073D01*
X123037188Y-102406376D01*
X122873216Y-102338456D01*
X122725646Y-102239853D01*
X122600147Y-102114354D01*
X122501544Y-101966784D01*
X122433624Y-101802812D01*
X122399000Y-101628741D01*
X122399000Y-101451259D01*
X122433624Y-101277188D01*
X122501544Y-101113216D01*
X122600147Y-100965646D01*
X122725646Y-100840147D01*
X122873216Y-100741544D01*
X123037188Y-100673624D01*
X123189495Y-100643329D01*
X123211258Y-100639000D01*
X123388742Y-100639000D01*
X123410505Y-100643329D01*
G37*
G36*
X127410505Y-100643329D02*
G01*
X127562812Y-100673624D01*
X127726784Y-100741544D01*
X127874354Y-100840147D01*
X127999853Y-100965646D01*
X128098456Y-101113216D01*
X128166376Y-101277188D01*
X128201000Y-101451259D01*
X128201000Y-101628741D01*
X128166376Y-101802812D01*
X128098456Y-101966784D01*
X127999853Y-102114354D01*
X127874354Y-102239853D01*
X127726784Y-102338456D01*
X127562812Y-102406376D01*
X127413512Y-102436073D01*
X127388742Y-102441000D01*
X127211258Y-102441000D01*
X127186488Y-102436073D01*
X127037188Y-102406376D01*
X126873216Y-102338456D01*
X126725646Y-102239853D01*
X126600147Y-102114354D01*
X126501544Y-101966784D01*
X126433624Y-101802812D01*
X126399000Y-101628741D01*
X126399000Y-101451259D01*
X126433624Y-101277188D01*
X126501544Y-101113216D01*
X126600147Y-100965646D01*
X126725646Y-100840147D01*
X126873216Y-100741544D01*
X127037188Y-100673624D01*
X127189495Y-100643329D01*
X127211258Y-100639000D01*
X127388742Y-100639000D01*
X127410505Y-100643329D01*
G37*
G36*
X127413512Y-98103927D02*
G01*
X127562812Y-98133624D01*
X127726784Y-98201544D01*
X127874354Y-98300147D01*
X127999853Y-98425646D01*
X128098456Y-98573216D01*
X128166376Y-98737188D01*
X128201000Y-98911259D01*
X128201000Y-99088741D01*
X128166376Y-99262812D01*
X128098456Y-99426784D01*
X127999853Y-99574354D01*
X127874354Y-99699853D01*
X127726784Y-99798456D01*
X127562812Y-99866376D01*
X127413512Y-99896073D01*
X127388742Y-99901000D01*
X127211258Y-99901000D01*
X127186488Y-99896073D01*
X127037188Y-99866376D01*
X126873216Y-99798456D01*
X126725646Y-99699853D01*
X126600147Y-99574354D01*
X126501544Y-99426784D01*
X126433624Y-99262812D01*
X126399000Y-99088741D01*
X126399000Y-98911259D01*
X126433624Y-98737188D01*
X126501544Y-98573216D01*
X126600147Y-98425646D01*
X126725646Y-98300147D01*
X126873216Y-98201544D01*
X127037188Y-98133624D01*
X127186488Y-98103927D01*
X127211258Y-98099000D01*
X127388742Y-98099000D01*
X127413512Y-98103927D01*
G37*
G36*
X123413512Y-98103927D02*
G01*
X123562812Y-98133624D01*
X123726784Y-98201544D01*
X123874354Y-98300147D01*
X123999853Y-98425646D01*
X124098456Y-98573216D01*
X124166376Y-98737188D01*
X124201000Y-98911259D01*
X124201000Y-99088741D01*
X124166376Y-99262812D01*
X124098456Y-99426784D01*
X123999853Y-99574354D01*
X123874354Y-99699853D01*
X123726784Y-99798456D01*
X123562812Y-99866376D01*
X123413512Y-99896073D01*
X123388742Y-99901000D01*
X123211258Y-99901000D01*
X123186488Y-99896073D01*
X123037188Y-99866376D01*
X122873216Y-99798456D01*
X122725646Y-99699853D01*
X122600147Y-99574354D01*
X122501544Y-99426784D01*
X122433624Y-99262812D01*
X122399000Y-99088741D01*
X122399000Y-98911259D01*
X122433624Y-98737188D01*
X122501544Y-98573216D01*
X122600147Y-98425646D01*
X122725646Y-98300147D01*
X122873216Y-98201544D01*
X123037188Y-98133624D01*
X123186488Y-98103927D01*
X123211258Y-98099000D01*
X123388742Y-98099000D01*
X123413512Y-98103927D01*
G37*
G36*
X123413512Y-95563927D02*
G01*
X123562812Y-95593624D01*
X123726784Y-95661544D01*
X123874354Y-95760147D01*
X123999853Y-95885646D01*
X124098456Y-96033216D01*
X124166376Y-96197188D01*
X124201000Y-96371259D01*
X124201000Y-96548741D01*
X124166376Y-96722812D01*
X124098456Y-96886784D01*
X123999853Y-97034354D01*
X123874354Y-97159853D01*
X123726784Y-97258456D01*
X123562812Y-97326376D01*
X123413512Y-97356073D01*
X123388742Y-97361000D01*
X123211258Y-97361000D01*
X123186488Y-97356073D01*
X123037188Y-97326376D01*
X122873216Y-97258456D01*
X122725646Y-97159853D01*
X122600147Y-97034354D01*
X122501544Y-96886784D01*
X122433624Y-96722812D01*
X122399000Y-96548741D01*
X122399000Y-96371259D01*
X122433624Y-96197188D01*
X122501544Y-96033216D01*
X122600147Y-95885646D01*
X122725646Y-95760147D01*
X122873216Y-95661544D01*
X123037188Y-95593624D01*
X123186488Y-95563927D01*
X123211258Y-95559000D01*
X123388742Y-95559000D01*
X123413512Y-95563927D01*
G37*
G36*
X127413512Y-95563927D02*
G01*
X127562812Y-95593624D01*
X127726784Y-95661544D01*
X127874354Y-95760147D01*
X127999853Y-95885646D01*
X128098456Y-96033216D01*
X128166376Y-96197188D01*
X128201000Y-96371259D01*
X128201000Y-96548741D01*
X128166376Y-96722812D01*
X128098456Y-96886784D01*
X127999853Y-97034354D01*
X127874354Y-97159853D01*
X127726784Y-97258456D01*
X127562812Y-97326376D01*
X127413512Y-97356073D01*
X127388742Y-97361000D01*
X127211258Y-97361000D01*
X127186488Y-97356073D01*
X127037188Y-97326376D01*
X126873216Y-97258456D01*
X126725646Y-97159853D01*
X126600147Y-97034354D01*
X126501544Y-96886784D01*
X126433624Y-96722812D01*
X126399000Y-96548741D01*
X126399000Y-96371259D01*
X126433624Y-96197188D01*
X126501544Y-96033216D01*
X126600147Y-95885646D01*
X126725646Y-95760147D01*
X126873216Y-95661544D01*
X127037188Y-95593624D01*
X127186488Y-95563927D01*
X127211258Y-95559000D01*
X127388742Y-95559000D01*
X127413512Y-95563927D01*
G37*
G36*
X51275880Y-92759776D02*
G01*
X51656593Y-92835504D01*
X52066249Y-93005189D01*
X52434929Y-93251534D01*
X52748466Y-93565071D01*
X52994811Y-93933751D01*
X53164496Y-94343407D01*
X53251000Y-94778296D01*
X53251000Y-95221704D01*
X53164496Y-95656593D01*
X52994811Y-96066249D01*
X52748466Y-96434929D01*
X52434929Y-96748466D01*
X52066249Y-96994811D01*
X51656593Y-97164496D01*
X51275880Y-97240224D01*
X51221705Y-97251000D01*
X50778295Y-97251000D01*
X50724120Y-97240224D01*
X50343407Y-97164496D01*
X49933751Y-96994811D01*
X49565071Y-96748466D01*
X49251534Y-96434929D01*
X49005189Y-96066249D01*
X48835504Y-95656593D01*
X48749000Y-95221704D01*
X48749000Y-94778296D01*
X48835504Y-94343407D01*
X49005189Y-93933751D01*
X49251534Y-93565071D01*
X49565071Y-93251534D01*
X49933751Y-93005189D01*
X50343407Y-92835504D01*
X50724120Y-92759776D01*
X50778295Y-92749000D01*
X51221705Y-92749000D01*
X51275880Y-92759776D01*
G37*
G36*
X76823241Y-93004760D02*
G01*
X77087305Y-93114139D01*
X77324958Y-93272934D01*
X77527066Y-93475042D01*
X77685861Y-93712695D01*
X77795240Y-93976759D01*
X77851000Y-94257088D01*
X77851000Y-94542912D01*
X77795240Y-94823241D01*
X77685861Y-95087305D01*
X77527066Y-95324958D01*
X77324958Y-95527066D01*
X77087305Y-95685861D01*
X76823241Y-95795240D01*
X76542912Y-95851000D01*
X76257088Y-95851000D01*
X75976759Y-95795240D01*
X75712695Y-95685861D01*
X75475042Y-95527066D01*
X75272934Y-95324958D01*
X75114139Y-95087305D01*
X75004760Y-94823241D01*
X74949000Y-94542912D01*
X74949000Y-94257088D01*
X75004760Y-93976759D01*
X75114139Y-93712695D01*
X75272934Y-93475042D01*
X75475042Y-93272934D01*
X75712695Y-93114139D01*
X75976759Y-93004760D01*
X76257088Y-92949000D01*
X76542912Y-92949000D01*
X76823241Y-93004760D01*
G37*
G36*
X123413512Y-93023927D02*
G01*
X123562812Y-93053624D01*
X123726784Y-93121544D01*
X123874354Y-93220147D01*
X123999853Y-93345646D01*
X124098456Y-93493216D01*
X124166376Y-93657188D01*
X124201000Y-93831259D01*
X124201000Y-94008741D01*
X124166376Y-94182812D01*
X124098456Y-94346784D01*
X123999853Y-94494354D01*
X123874354Y-94619853D01*
X123726784Y-94718456D01*
X123562812Y-94786376D01*
X123413512Y-94816073D01*
X123388742Y-94821000D01*
X123211258Y-94821000D01*
X123186488Y-94816073D01*
X123037188Y-94786376D01*
X122873216Y-94718456D01*
X122725646Y-94619853D01*
X122600147Y-94494354D01*
X122501544Y-94346784D01*
X122433624Y-94182812D01*
X122399000Y-94008741D01*
X122399000Y-93831259D01*
X122433624Y-93657188D01*
X122501544Y-93493216D01*
X122600147Y-93345646D01*
X122725646Y-93220147D01*
X122873216Y-93121544D01*
X123037188Y-93053624D01*
X123186488Y-93023927D01*
X123211258Y-93019000D01*
X123388742Y-93019000D01*
X123413512Y-93023927D01*
G37*
G36*
X127413512Y-93023927D02*
G01*
X127562812Y-93053624D01*
X127726784Y-93121544D01*
X127874354Y-93220147D01*
X127999853Y-93345646D01*
X128098456Y-93493216D01*
X128166376Y-93657188D01*
X128201000Y-93831259D01*
X128201000Y-94008741D01*
X128166376Y-94182812D01*
X128098456Y-94346784D01*
X127999853Y-94494354D01*
X127874354Y-94619853D01*
X127726784Y-94718456D01*
X127562812Y-94786376D01*
X127413512Y-94816073D01*
X127388742Y-94821000D01*
X127211258Y-94821000D01*
X127186488Y-94816073D01*
X127037188Y-94786376D01*
X126873216Y-94718456D01*
X126725646Y-94619853D01*
X126600147Y-94494354D01*
X126501544Y-94346784D01*
X126433624Y-94182812D01*
X126399000Y-94008741D01*
X126399000Y-93831259D01*
X126433624Y-93657188D01*
X126501544Y-93493216D01*
X126600147Y-93345646D01*
X126725646Y-93220147D01*
X126873216Y-93121544D01*
X127037188Y-93053624D01*
X127186488Y-93023927D01*
X127211258Y-93019000D01*
X127388742Y-93019000D01*
X127413512Y-93023927D01*
G37*
G36*
X55901000Y-92901000D02*
G01*
X54099000Y-92901000D01*
X54099000Y-91099000D01*
X55901000Y-91099000D01*
X55901000Y-92901000D01*
G37*
G36*
X123413512Y-90483927D02*
G01*
X123562812Y-90513624D01*
X123726784Y-90581544D01*
X123874354Y-90680147D01*
X123999853Y-90805646D01*
X124098456Y-90953216D01*
X124166376Y-91117188D01*
X124201000Y-91291259D01*
X124201000Y-91468741D01*
X124166376Y-91642812D01*
X124098456Y-91806784D01*
X123999853Y-91954354D01*
X123874354Y-92079853D01*
X123726784Y-92178456D01*
X123562812Y-92246376D01*
X123413512Y-92276073D01*
X123388742Y-92281000D01*
X123211258Y-92281000D01*
X123186488Y-92276073D01*
X123037188Y-92246376D01*
X122873216Y-92178456D01*
X122725646Y-92079853D01*
X122600147Y-91954354D01*
X122501544Y-91806784D01*
X122433624Y-91642812D01*
X122399000Y-91468741D01*
X122399000Y-91291259D01*
X122433624Y-91117188D01*
X122501544Y-90953216D01*
X122600147Y-90805646D01*
X122725646Y-90680147D01*
X122873216Y-90581544D01*
X123037188Y-90513624D01*
X123186488Y-90483927D01*
X123211258Y-90479000D01*
X123388742Y-90479000D01*
X123413512Y-90483927D01*
G37*
G36*
X127413512Y-90483927D02*
G01*
X127562812Y-90513624D01*
X127726784Y-90581544D01*
X127874354Y-90680147D01*
X127999853Y-90805646D01*
X128098456Y-90953216D01*
X128166376Y-91117188D01*
X128201000Y-91291259D01*
X128201000Y-91468741D01*
X128166376Y-91642812D01*
X128098456Y-91806784D01*
X127999853Y-91954354D01*
X127874354Y-92079853D01*
X127726784Y-92178456D01*
X127562812Y-92246376D01*
X127413512Y-92276073D01*
X127388742Y-92281000D01*
X127211258Y-92281000D01*
X127186488Y-92276073D01*
X127037188Y-92246376D01*
X126873216Y-92178456D01*
X126725646Y-92079853D01*
X126600147Y-91954354D01*
X126501544Y-91806784D01*
X126433624Y-91642812D01*
X126399000Y-91468741D01*
X126399000Y-91291259D01*
X126433624Y-91117188D01*
X126501544Y-90953216D01*
X126600147Y-90805646D01*
X126725646Y-90680147D01*
X126873216Y-90581544D01*
X127037188Y-90513624D01*
X127186488Y-90483927D01*
X127211258Y-90479000D01*
X127388742Y-90479000D01*
X127413512Y-90483927D01*
G37*
G36*
X55113512Y-88563927D02*
G01*
X55262812Y-88593624D01*
X55426784Y-88661544D01*
X55574354Y-88760147D01*
X55699853Y-88885646D01*
X55798456Y-89033216D01*
X55866376Y-89197188D01*
X55901000Y-89371259D01*
X55901000Y-89548741D01*
X55866376Y-89722812D01*
X55798456Y-89886784D01*
X55699853Y-90034354D01*
X55574354Y-90159853D01*
X55426784Y-90258456D01*
X55262812Y-90326376D01*
X55113512Y-90356073D01*
X55088742Y-90361000D01*
X54911258Y-90361000D01*
X54886488Y-90356073D01*
X54737188Y-90326376D01*
X54573216Y-90258456D01*
X54425646Y-90159853D01*
X54300147Y-90034354D01*
X54201544Y-89886784D01*
X54133624Y-89722812D01*
X54099000Y-89548741D01*
X54099000Y-89371259D01*
X54133624Y-89197188D01*
X54201544Y-89033216D01*
X54300147Y-88885646D01*
X54425646Y-88760147D01*
X54573216Y-88661544D01*
X54737188Y-88593624D01*
X54886488Y-88563927D01*
X54911258Y-88559000D01*
X55088742Y-88559000D01*
X55113512Y-88563927D01*
G37*
G36*
X127413512Y-87943927D02*
G01*
X127562812Y-87973624D01*
X127726784Y-88041544D01*
X127874354Y-88140147D01*
X127999853Y-88265646D01*
X128098456Y-88413216D01*
X128166376Y-88577188D01*
X128201000Y-88751259D01*
X128201000Y-88928741D01*
X128166376Y-89102812D01*
X128098456Y-89266784D01*
X127999853Y-89414354D01*
X127874354Y-89539853D01*
X127726784Y-89638456D01*
X127562812Y-89706376D01*
X127413512Y-89736073D01*
X127388742Y-89741000D01*
X127211258Y-89741000D01*
X127186488Y-89736073D01*
X127037188Y-89706376D01*
X126873216Y-89638456D01*
X126725646Y-89539853D01*
X126600147Y-89414354D01*
X126501544Y-89266784D01*
X126433624Y-89102812D01*
X126399000Y-88928741D01*
X126399000Y-88751259D01*
X126433624Y-88577188D01*
X126501544Y-88413216D01*
X126600147Y-88265646D01*
X126725646Y-88140147D01*
X126873216Y-88041544D01*
X127037188Y-87973624D01*
X127186488Y-87943927D01*
X127211258Y-87939000D01*
X127388742Y-87939000D01*
X127413512Y-87943927D01*
G37*
G36*
X123413512Y-87943927D02*
G01*
X123562812Y-87973624D01*
X123726784Y-88041544D01*
X123874354Y-88140147D01*
X123999853Y-88265646D01*
X124098456Y-88413216D01*
X124166376Y-88577188D01*
X124201000Y-88751259D01*
X124201000Y-88928741D01*
X124166376Y-89102812D01*
X124098456Y-89266784D01*
X123999853Y-89414354D01*
X123874354Y-89539853D01*
X123726784Y-89638456D01*
X123562812Y-89706376D01*
X123413512Y-89736073D01*
X123388742Y-89741000D01*
X123211258Y-89741000D01*
X123186488Y-89736073D01*
X123037188Y-89706376D01*
X122873216Y-89638456D01*
X122725646Y-89539853D01*
X122600147Y-89414354D01*
X122501544Y-89266784D01*
X122433624Y-89102812D01*
X122399000Y-88928741D01*
X122399000Y-88751259D01*
X122433624Y-88577188D01*
X122501544Y-88413216D01*
X122600147Y-88265646D01*
X122725646Y-88140147D01*
X122873216Y-88041544D01*
X123037188Y-87973624D01*
X123186488Y-87943927D01*
X123211258Y-87939000D01*
X123388742Y-87939000D01*
X123413512Y-87943927D01*
G37*
G36*
X51275880Y-83759776D02*
G01*
X51656593Y-83835504D01*
X52066249Y-84005189D01*
X52434929Y-84251534D01*
X52748466Y-84565071D01*
X52994811Y-84933751D01*
X53164496Y-85343407D01*
X53251000Y-85778296D01*
X53251000Y-86221704D01*
X53164496Y-86656593D01*
X52994811Y-87066249D01*
X52748466Y-87434929D01*
X52434929Y-87748466D01*
X52066249Y-87994811D01*
X51656593Y-88164496D01*
X51275880Y-88240224D01*
X51221705Y-88251000D01*
X50778295Y-88251000D01*
X50724120Y-88240224D01*
X50343407Y-88164496D01*
X49933751Y-87994811D01*
X49565071Y-87748466D01*
X49251534Y-87434929D01*
X49005189Y-87066249D01*
X48835504Y-86656593D01*
X48749000Y-86221704D01*
X48749000Y-85778296D01*
X48835504Y-85343407D01*
X49005189Y-84933751D01*
X49251534Y-84565071D01*
X49565071Y-84251534D01*
X49933751Y-84005189D01*
X50343407Y-83835504D01*
X50724120Y-83759776D01*
X50778295Y-83749000D01*
X51221705Y-83749000D01*
X51275880Y-83759776D01*
G37*
G36*
X124201000Y-87201000D02*
G01*
X122399000Y-87201000D01*
X122399000Y-85399000D01*
X124201000Y-85399000D01*
X124201000Y-87201000D01*
G37*
G36*
X128201000Y-87201000D02*
G01*
X126399000Y-87201000D01*
X126399000Y-85399000D01*
X128201000Y-85399000D01*
X128201000Y-87201000D01*
G37*
G36*
X127413512Y-79563927D02*
G01*
X127562812Y-79593624D01*
X127726784Y-79661544D01*
X127874354Y-79760147D01*
X127999853Y-79885646D01*
X128098456Y-80033216D01*
X128166376Y-80197188D01*
X128201000Y-80371259D01*
X128201000Y-80548741D01*
X128166376Y-80722812D01*
X128098456Y-80886784D01*
X127999853Y-81034354D01*
X127874354Y-81159853D01*
X127726784Y-81258456D01*
X127562812Y-81326376D01*
X127413512Y-81356073D01*
X127388742Y-81361000D01*
X127211258Y-81361000D01*
X127186488Y-81356073D01*
X127037188Y-81326376D01*
X126873216Y-81258456D01*
X126725646Y-81159853D01*
X126600147Y-81034354D01*
X126501544Y-80886784D01*
X126433624Y-80722812D01*
X126399000Y-80548741D01*
X126399000Y-80371259D01*
X126433624Y-80197188D01*
X126501544Y-80033216D01*
X126600147Y-79885646D01*
X126725646Y-79760147D01*
X126873216Y-79661544D01*
X127037188Y-79593624D01*
X127186488Y-79563927D01*
X127211258Y-79559000D01*
X127388742Y-79559000D01*
X127413512Y-79563927D01*
G37*
G36*
X123413512Y-79563927D02*
G01*
X123562812Y-79593624D01*
X123726784Y-79661544D01*
X123874354Y-79760147D01*
X123999853Y-79885646D01*
X124098456Y-80033216D01*
X124166376Y-80197188D01*
X124201000Y-80371259D01*
X124201000Y-80548741D01*
X124166376Y-80722812D01*
X124098456Y-80886784D01*
X123999853Y-81034354D01*
X123874354Y-81159853D01*
X123726784Y-81258456D01*
X123562812Y-81326376D01*
X123413512Y-81356073D01*
X123388742Y-81361000D01*
X123211258Y-81361000D01*
X123186488Y-81356073D01*
X123037188Y-81326376D01*
X122873216Y-81258456D01*
X122725646Y-81159853D01*
X122600147Y-81034354D01*
X122501544Y-80886784D01*
X122433624Y-80722812D01*
X122399000Y-80548741D01*
X122399000Y-80371259D01*
X122433624Y-80197188D01*
X122501544Y-80033216D01*
X122600147Y-79885646D01*
X122725646Y-79760147D01*
X122873216Y-79661544D01*
X123037188Y-79593624D01*
X123186488Y-79563927D01*
X123211258Y-79559000D01*
X123388742Y-79559000D01*
X123413512Y-79563927D01*
G37*
G36*
X51275880Y-74759776D02*
G01*
X51656593Y-74835504D01*
X52066249Y-75005189D01*
X52434929Y-75251534D01*
X52748466Y-75565071D01*
X52994811Y-75933751D01*
X53164496Y-76343407D01*
X53251000Y-76778296D01*
X53251000Y-77221704D01*
X53164496Y-77656593D01*
X52994811Y-78066249D01*
X52748466Y-78434929D01*
X52434929Y-78748466D01*
X52066249Y-78994811D01*
X51656593Y-79164496D01*
X51275880Y-79240224D01*
X51221705Y-79251000D01*
X50778295Y-79251000D01*
X50724120Y-79240224D01*
X50343407Y-79164496D01*
X49933751Y-78994811D01*
X49565071Y-78748466D01*
X49251534Y-78434929D01*
X49005189Y-78066249D01*
X48835504Y-77656593D01*
X48749000Y-77221704D01*
X48749000Y-76778296D01*
X48835504Y-76343407D01*
X49005189Y-75933751D01*
X49251534Y-75565071D01*
X49565071Y-75251534D01*
X49933751Y-75005189D01*
X50343407Y-74835504D01*
X50724120Y-74759776D01*
X50778295Y-74749000D01*
X51221705Y-74749000D01*
X51275880Y-74759776D01*
G37*
G36*
X127413512Y-77023927D02*
G01*
X127562812Y-77053624D01*
X127726784Y-77121544D01*
X127874354Y-77220147D01*
X127999853Y-77345646D01*
X128098456Y-77493216D01*
X128166376Y-77657188D01*
X128201000Y-77831259D01*
X128201000Y-78008741D01*
X128166376Y-78182812D01*
X128098456Y-78346784D01*
X127999853Y-78494354D01*
X127874354Y-78619853D01*
X127726784Y-78718456D01*
X127562812Y-78786376D01*
X127413512Y-78816073D01*
X127388742Y-78821000D01*
X127211258Y-78821000D01*
X127186488Y-78816073D01*
X127037188Y-78786376D01*
X126873216Y-78718456D01*
X126725646Y-78619853D01*
X126600147Y-78494354D01*
X126501544Y-78346784D01*
X126433624Y-78182812D01*
X126399000Y-78008741D01*
X126399000Y-77831259D01*
X126433624Y-77657188D01*
X126501544Y-77493216D01*
X126600147Y-77345646D01*
X126725646Y-77220147D01*
X126873216Y-77121544D01*
X127037188Y-77053624D01*
X127186488Y-77023927D01*
X127211258Y-77019000D01*
X127388742Y-77019000D01*
X127413512Y-77023927D01*
G37*
G36*
X123413512Y-77023927D02*
G01*
X123562812Y-77053624D01*
X123726784Y-77121544D01*
X123874354Y-77220147D01*
X123999853Y-77345646D01*
X124098456Y-77493216D01*
X124166376Y-77657188D01*
X124201000Y-77831259D01*
X124201000Y-78008741D01*
X124166376Y-78182812D01*
X124098456Y-78346784D01*
X123999853Y-78494354D01*
X123874354Y-78619853D01*
X123726784Y-78718456D01*
X123562812Y-78786376D01*
X123413512Y-78816073D01*
X123388742Y-78821000D01*
X123211258Y-78821000D01*
X123186488Y-78816073D01*
X123037188Y-78786376D01*
X122873216Y-78718456D01*
X122725646Y-78619853D01*
X122600147Y-78494354D01*
X122501544Y-78346784D01*
X122433624Y-78182812D01*
X122399000Y-78008741D01*
X122399000Y-77831259D01*
X122433624Y-77657188D01*
X122501544Y-77493216D01*
X122600147Y-77345646D01*
X122725646Y-77220147D01*
X122873216Y-77121544D01*
X123037188Y-77053624D01*
X123186488Y-77023927D01*
X123211258Y-77019000D01*
X123388742Y-77019000D01*
X123413512Y-77023927D01*
G37*
G36*
X123413512Y-74483927D02*
G01*
X123562812Y-74513624D01*
X123726784Y-74581544D01*
X123874354Y-74680147D01*
X123999853Y-74805646D01*
X124098456Y-74953216D01*
X124166376Y-75117188D01*
X124201000Y-75291259D01*
X124201000Y-75468741D01*
X124166376Y-75642812D01*
X124098456Y-75806784D01*
X123999853Y-75954354D01*
X123874354Y-76079853D01*
X123726784Y-76178456D01*
X123562812Y-76246376D01*
X123413512Y-76276073D01*
X123388742Y-76281000D01*
X123211258Y-76281000D01*
X123186488Y-76276073D01*
X123037188Y-76246376D01*
X122873216Y-76178456D01*
X122725646Y-76079853D01*
X122600147Y-75954354D01*
X122501544Y-75806784D01*
X122433624Y-75642812D01*
X122399000Y-75468741D01*
X122399000Y-75291259D01*
X122433624Y-75117188D01*
X122501544Y-74953216D01*
X122600147Y-74805646D01*
X122725646Y-74680147D01*
X122873216Y-74581544D01*
X123037188Y-74513624D01*
X123186488Y-74483927D01*
X123211258Y-74479000D01*
X123388742Y-74479000D01*
X123413512Y-74483927D01*
G37*
G36*
X127413512Y-74483927D02*
G01*
X127562812Y-74513624D01*
X127726784Y-74581544D01*
X127874354Y-74680147D01*
X127999853Y-74805646D01*
X128098456Y-74953216D01*
X128166376Y-75117188D01*
X128201000Y-75291259D01*
X128201000Y-75468741D01*
X128166376Y-75642812D01*
X128098456Y-75806784D01*
X127999853Y-75954354D01*
X127874354Y-76079853D01*
X127726784Y-76178456D01*
X127562812Y-76246376D01*
X127413512Y-76276073D01*
X127388742Y-76281000D01*
X127211258Y-76281000D01*
X127186488Y-76276073D01*
X127037188Y-76246376D01*
X126873216Y-76178456D01*
X126725646Y-76079853D01*
X126600147Y-75954354D01*
X126501544Y-75806784D01*
X126433624Y-75642812D01*
X126399000Y-75468741D01*
X126399000Y-75291259D01*
X126433624Y-75117188D01*
X126501544Y-74953216D01*
X126600147Y-74805646D01*
X126725646Y-74680147D01*
X126873216Y-74581544D01*
X127037188Y-74513624D01*
X127186488Y-74483927D01*
X127211258Y-74479000D01*
X127388742Y-74479000D01*
X127413512Y-74483927D01*
G37*
G36*
X55901000Y-74901000D02*
G01*
X54099000Y-74901000D01*
X54099000Y-73099000D01*
X55901000Y-73099000D01*
X55901000Y-74901000D01*
G37*
G36*
X123413512Y-71943927D02*
G01*
X123562812Y-71973624D01*
X123726784Y-72041544D01*
X123874354Y-72140147D01*
X123999853Y-72265646D01*
X124098456Y-72413216D01*
X124166376Y-72577188D01*
X124201000Y-72751259D01*
X124201000Y-72928741D01*
X124166376Y-73102812D01*
X124098456Y-73266784D01*
X123999853Y-73414354D01*
X123874354Y-73539853D01*
X123726784Y-73638456D01*
X123562812Y-73706376D01*
X123413512Y-73736073D01*
X123388742Y-73741000D01*
X123211258Y-73741000D01*
X123186488Y-73736073D01*
X123037188Y-73706376D01*
X122873216Y-73638456D01*
X122725646Y-73539853D01*
X122600147Y-73414354D01*
X122501544Y-73266784D01*
X122433624Y-73102812D01*
X122399000Y-72928741D01*
X122399000Y-72751259D01*
X122433624Y-72577188D01*
X122501544Y-72413216D01*
X122600147Y-72265646D01*
X122725646Y-72140147D01*
X122873216Y-72041544D01*
X123037188Y-71973624D01*
X123186488Y-71943927D01*
X123211258Y-71939000D01*
X123388742Y-71939000D01*
X123413512Y-71943927D01*
G37*
G36*
X127413512Y-71943927D02*
G01*
X127562812Y-71973624D01*
X127726784Y-72041544D01*
X127874354Y-72140147D01*
X127999853Y-72265646D01*
X128098456Y-72413216D01*
X128166376Y-72577188D01*
X128201000Y-72751259D01*
X128201000Y-72928741D01*
X128166376Y-73102812D01*
X128098456Y-73266784D01*
X127999853Y-73414354D01*
X127874354Y-73539853D01*
X127726784Y-73638456D01*
X127562812Y-73706376D01*
X127413512Y-73736073D01*
X127388742Y-73741000D01*
X127211258Y-73741000D01*
X127186488Y-73736073D01*
X127037188Y-73706376D01*
X126873216Y-73638456D01*
X126725646Y-73539853D01*
X126600147Y-73414354D01*
X126501544Y-73266784D01*
X126433624Y-73102812D01*
X126399000Y-72928741D01*
X126399000Y-72751259D01*
X126433624Y-72577188D01*
X126501544Y-72413216D01*
X126600147Y-72265646D01*
X126725646Y-72140147D01*
X126873216Y-72041544D01*
X127037188Y-71973624D01*
X127186488Y-71943927D01*
X127211258Y-71939000D01*
X127388742Y-71939000D01*
X127413512Y-71943927D01*
G37*
G36*
X55107901Y-70562811D02*
G01*
X55262812Y-70593624D01*
X55426784Y-70661544D01*
X55574354Y-70760147D01*
X55699853Y-70885646D01*
X55798456Y-71033216D01*
X55866376Y-71197188D01*
X55901000Y-71371259D01*
X55901000Y-71548741D01*
X55866376Y-71722812D01*
X55798456Y-71886784D01*
X55699853Y-72034354D01*
X55574354Y-72159853D01*
X55426784Y-72258456D01*
X55262812Y-72326376D01*
X55113512Y-72356073D01*
X55088742Y-72361000D01*
X54911258Y-72361000D01*
X54886488Y-72356073D01*
X54737188Y-72326376D01*
X54573216Y-72258456D01*
X54425646Y-72159853D01*
X54300147Y-72034354D01*
X54201544Y-71886784D01*
X54133624Y-71722812D01*
X54099000Y-71548741D01*
X54099000Y-71371259D01*
X54133624Y-71197188D01*
X54201544Y-71033216D01*
X54300147Y-70885646D01*
X54425646Y-70760147D01*
X54573216Y-70661544D01*
X54737188Y-70593624D01*
X54892099Y-70562811D01*
X54911258Y-70559000D01*
X55088742Y-70559000D01*
X55107901Y-70562811D01*
G37*
G36*
X127413512Y-69403927D02*
G01*
X127562812Y-69433624D01*
X127726784Y-69501544D01*
X127874354Y-69600147D01*
X127999853Y-69725646D01*
X128098456Y-69873216D01*
X128166376Y-70037188D01*
X128201000Y-70211259D01*
X128201000Y-70388741D01*
X128166376Y-70562812D01*
X128098456Y-70726784D01*
X127999853Y-70874354D01*
X127874354Y-70999853D01*
X127726784Y-71098456D01*
X127562812Y-71166376D01*
X127413512Y-71196073D01*
X127388742Y-71201000D01*
X127211258Y-71201000D01*
X127186488Y-71196073D01*
X127037188Y-71166376D01*
X126873216Y-71098456D01*
X126725646Y-70999853D01*
X126600147Y-70874354D01*
X126501544Y-70726784D01*
X126433624Y-70562812D01*
X126399000Y-70388741D01*
X126399000Y-70211259D01*
X126433624Y-70037188D01*
X126501544Y-69873216D01*
X126600147Y-69725646D01*
X126725646Y-69600147D01*
X126873216Y-69501544D01*
X127037188Y-69433624D01*
X127186488Y-69403927D01*
X127211258Y-69399000D01*
X127388742Y-69399000D01*
X127413512Y-69403927D01*
G37*
G36*
X123413512Y-69403927D02*
G01*
X123562812Y-69433624D01*
X123726784Y-69501544D01*
X123874354Y-69600147D01*
X123999853Y-69725646D01*
X124098456Y-69873216D01*
X124166376Y-70037188D01*
X124201000Y-70211259D01*
X124201000Y-70388741D01*
X124166376Y-70562812D01*
X124098456Y-70726784D01*
X123999853Y-70874354D01*
X123874354Y-70999853D01*
X123726784Y-71098456D01*
X123562812Y-71166376D01*
X123413512Y-71196073D01*
X123388742Y-71201000D01*
X123211258Y-71201000D01*
X123186488Y-71196073D01*
X123037188Y-71166376D01*
X122873216Y-71098456D01*
X122725646Y-70999853D01*
X122600147Y-70874354D01*
X122501544Y-70726784D01*
X122433624Y-70562812D01*
X122399000Y-70388741D01*
X122399000Y-70211259D01*
X122433624Y-70037188D01*
X122501544Y-69873216D01*
X122600147Y-69725646D01*
X122725646Y-69600147D01*
X122873216Y-69501544D01*
X123037188Y-69433624D01*
X123186488Y-69403927D01*
X123211258Y-69399000D01*
X123388742Y-69399000D01*
X123413512Y-69403927D01*
G37*
G36*
X51275880Y-65759776D02*
G01*
X51656593Y-65835504D01*
X52066249Y-66005189D01*
X52434929Y-66251534D01*
X52748466Y-66565071D01*
X52994811Y-66933751D01*
X53164496Y-67343407D01*
X53251000Y-67778296D01*
X53251000Y-68221704D01*
X53164496Y-68656593D01*
X52994811Y-69066249D01*
X52748466Y-69434929D01*
X52434929Y-69748466D01*
X52066249Y-69994811D01*
X51656593Y-70164496D01*
X51275880Y-70240224D01*
X51221705Y-70251000D01*
X50778295Y-70251000D01*
X50724120Y-70240224D01*
X50343407Y-70164496D01*
X49933751Y-69994811D01*
X49565071Y-69748466D01*
X49251534Y-69434929D01*
X49005189Y-69066249D01*
X48835504Y-68656593D01*
X48749000Y-68221704D01*
X48749000Y-67778296D01*
X48835504Y-67343407D01*
X49005189Y-66933751D01*
X49251534Y-66565071D01*
X49565071Y-66251534D01*
X49933751Y-66005189D01*
X50343407Y-65835504D01*
X50724120Y-65759776D01*
X50778295Y-65749000D01*
X51221705Y-65749000D01*
X51275880Y-65759776D01*
G37*
G36*
X123413512Y-66863927D02*
G01*
X123562812Y-66893624D01*
X123726784Y-66961544D01*
X123874354Y-67060147D01*
X123999853Y-67185646D01*
X124098456Y-67333216D01*
X124166376Y-67497188D01*
X124201000Y-67671259D01*
X124201000Y-67848741D01*
X124166376Y-68022812D01*
X124098456Y-68186784D01*
X123999853Y-68334354D01*
X123874354Y-68459853D01*
X123726784Y-68558456D01*
X123562812Y-68626376D01*
X123413512Y-68656073D01*
X123388742Y-68661000D01*
X123211258Y-68661000D01*
X123186488Y-68656073D01*
X123037188Y-68626376D01*
X122873216Y-68558456D01*
X122725646Y-68459853D01*
X122600147Y-68334354D01*
X122501544Y-68186784D01*
X122433624Y-68022812D01*
X122399000Y-67848741D01*
X122399000Y-67671259D01*
X122433624Y-67497188D01*
X122501544Y-67333216D01*
X122600147Y-67185646D01*
X122725646Y-67060147D01*
X122873216Y-66961544D01*
X123037188Y-66893624D01*
X123186488Y-66863927D01*
X123211258Y-66859000D01*
X123388742Y-66859000D01*
X123413512Y-66863927D01*
G37*
G36*
X127413512Y-66863927D02*
G01*
X127562812Y-66893624D01*
X127726784Y-66961544D01*
X127874354Y-67060147D01*
X127999853Y-67185646D01*
X128098456Y-67333216D01*
X128166376Y-67497188D01*
X128201000Y-67671259D01*
X128201000Y-67848741D01*
X128166376Y-68022812D01*
X128098456Y-68186784D01*
X127999853Y-68334354D01*
X127874354Y-68459853D01*
X127726784Y-68558456D01*
X127562812Y-68626376D01*
X127413512Y-68656073D01*
X127388742Y-68661000D01*
X127211258Y-68661000D01*
X127186488Y-68656073D01*
X127037188Y-68626376D01*
X126873216Y-68558456D01*
X126725646Y-68459853D01*
X126600147Y-68334354D01*
X126501544Y-68186784D01*
X126433624Y-68022812D01*
X126399000Y-67848741D01*
X126399000Y-67671259D01*
X126433624Y-67497188D01*
X126501544Y-67333216D01*
X126600147Y-67185646D01*
X126725646Y-67060147D01*
X126873216Y-66961544D01*
X127037188Y-66893624D01*
X127186488Y-66863927D01*
X127211258Y-66859000D01*
X127388742Y-66859000D01*
X127413512Y-66863927D01*
G37*
G36*
X57323241Y-63504760D02*
G01*
X57587305Y-63614139D01*
X57824958Y-63772934D01*
X58027066Y-63975042D01*
X58185861Y-64212695D01*
X58295240Y-64476759D01*
X58351000Y-64757088D01*
X58351000Y-65042912D01*
X58295240Y-65323241D01*
X58185861Y-65587305D01*
X58027066Y-65824958D01*
X57824958Y-66027066D01*
X57587305Y-66185861D01*
X57323241Y-66295240D01*
X57042912Y-66351000D01*
X56757088Y-66351000D01*
X56476759Y-66295240D01*
X56212695Y-66185861D01*
X55975042Y-66027066D01*
X55772934Y-65824958D01*
X55614139Y-65587305D01*
X55504760Y-65323241D01*
X55449000Y-65042912D01*
X55449000Y-64757088D01*
X55504760Y-64476759D01*
X55614139Y-64212695D01*
X55772934Y-63975042D01*
X55975042Y-63772934D01*
X56212695Y-63614139D01*
X56476759Y-63504760D01*
X56757088Y-63449000D01*
X57042912Y-63449000D01*
X57323241Y-63504760D01*
G37*
G36*
X123413512Y-64323927D02*
G01*
X123562812Y-64353624D01*
X123726784Y-64421544D01*
X123874354Y-64520147D01*
X123999853Y-64645646D01*
X124098456Y-64793216D01*
X124166376Y-64957188D01*
X124183427Y-65042912D01*
X124201000Y-65131258D01*
X124201000Y-65308742D01*
X124200190Y-65312812D01*
X124166376Y-65482812D01*
X124098456Y-65646784D01*
X123999853Y-65794354D01*
X123874354Y-65919853D01*
X123726784Y-66018456D01*
X123562812Y-66086376D01*
X123413512Y-66116073D01*
X123388742Y-66121000D01*
X123211258Y-66121000D01*
X123186488Y-66116073D01*
X123037188Y-66086376D01*
X122873216Y-66018456D01*
X122725646Y-65919853D01*
X122600147Y-65794354D01*
X122501544Y-65646784D01*
X122433624Y-65482812D01*
X122399810Y-65312812D01*
X122399000Y-65308742D01*
X122399000Y-65131258D01*
X122416573Y-65042912D01*
X122433624Y-64957188D01*
X122501544Y-64793216D01*
X122600147Y-64645646D01*
X122725646Y-64520147D01*
X122873216Y-64421544D01*
X123037188Y-64353624D01*
X123186488Y-64323927D01*
X123211258Y-64319000D01*
X123388742Y-64319000D01*
X123413512Y-64323927D01*
G37*
G36*
X127413512Y-64323927D02*
G01*
X127562812Y-64353624D01*
X127726784Y-64421544D01*
X127874354Y-64520147D01*
X127999853Y-64645646D01*
X128098456Y-64793216D01*
X128166376Y-64957188D01*
X128183427Y-65042912D01*
X128201000Y-65131258D01*
X128201000Y-65308742D01*
X128200190Y-65312812D01*
X128166376Y-65482812D01*
X128098456Y-65646784D01*
X127999853Y-65794354D01*
X127874354Y-65919853D01*
X127726784Y-66018456D01*
X127562812Y-66086376D01*
X127413512Y-66116073D01*
X127388742Y-66121000D01*
X127211258Y-66121000D01*
X127186488Y-66116073D01*
X127037188Y-66086376D01*
X126873216Y-66018456D01*
X126725646Y-65919853D01*
X126600147Y-65794354D01*
X126501544Y-65646784D01*
X126433624Y-65482812D01*
X126399810Y-65312812D01*
X126399000Y-65308742D01*
X126399000Y-65131258D01*
X126416573Y-65042912D01*
X126433624Y-64957188D01*
X126501544Y-64793216D01*
X126600147Y-64645646D01*
X126725646Y-64520147D01*
X126873216Y-64421544D01*
X127037188Y-64353624D01*
X127186488Y-64323927D01*
X127211258Y-64319000D01*
X127388742Y-64319000D01*
X127413512Y-64323927D01*
G37*
G36*
X119201000Y-65951000D02*
G01*
X117399000Y-65951000D01*
X117399000Y-64149000D01*
X119201000Y-64149000D01*
X119201000Y-65951000D01*
G37*
G36*
X115873512Y-64153927D02*
G01*
X116022812Y-64183624D01*
X116186784Y-64251544D01*
X116334354Y-64350147D01*
X116459853Y-64475646D01*
X116558456Y-64623216D01*
X116626376Y-64787188D01*
X116656073Y-64936488D01*
X116660191Y-64957189D01*
X116661000Y-64961259D01*
X116661000Y-65138741D01*
X116626376Y-65312812D01*
X116558456Y-65476784D01*
X116459853Y-65624354D01*
X116334354Y-65749853D01*
X116186784Y-65848456D01*
X116022812Y-65916376D01*
X115873512Y-65946073D01*
X115848742Y-65951000D01*
X115671258Y-65951000D01*
X115646488Y-65946073D01*
X115497188Y-65916376D01*
X115333216Y-65848456D01*
X115185646Y-65749853D01*
X115060147Y-65624354D01*
X114961544Y-65476784D01*
X114893624Y-65312812D01*
X114859000Y-65138741D01*
X114859000Y-64961259D01*
X114859810Y-64957189D01*
X114863927Y-64936488D01*
X114893624Y-64787188D01*
X114961544Y-64623216D01*
X115060147Y-64475646D01*
X115185646Y-64350147D01*
X115333216Y-64251544D01*
X115497188Y-64183624D01*
X115646488Y-64153927D01*
X115671258Y-64149000D01*
X115848742Y-64149000D01*
X115873512Y-64153927D01*
G37*
G36*
X123413512Y-61783927D02*
G01*
X123562812Y-61813624D01*
X123726784Y-61881544D01*
X123874354Y-61980147D01*
X123999853Y-62105646D01*
X124098456Y-62253216D01*
X124166376Y-62417188D01*
X124196073Y-62566488D01*
X124201000Y-62591258D01*
X124201000Y-62768742D01*
X124197307Y-62787306D01*
X124166376Y-62942812D01*
X124098456Y-63106784D01*
X123999853Y-63254354D01*
X123874354Y-63379853D01*
X123726784Y-63478456D01*
X123562812Y-63546376D01*
X123413512Y-63576073D01*
X123388742Y-63581000D01*
X123211258Y-63581000D01*
X123186488Y-63576073D01*
X123037188Y-63546376D01*
X122873216Y-63478456D01*
X122725646Y-63379853D01*
X122600147Y-63254354D01*
X122501544Y-63106784D01*
X122433624Y-62942812D01*
X122402693Y-62787306D01*
X122399000Y-62768742D01*
X122399000Y-62591258D01*
X122403927Y-62566488D01*
X122433624Y-62417188D01*
X122501544Y-62253216D01*
X122600147Y-62105646D01*
X122725646Y-61980147D01*
X122873216Y-61881544D01*
X123037188Y-61813624D01*
X123186488Y-61783927D01*
X123211258Y-61779000D01*
X123388742Y-61779000D01*
X123413512Y-61783927D01*
G37*
G36*
X127413512Y-61783927D02*
G01*
X127562812Y-61813624D01*
X127726784Y-61881544D01*
X127874354Y-61980147D01*
X127999853Y-62105646D01*
X128098456Y-62253216D01*
X128166376Y-62417188D01*
X128196073Y-62566488D01*
X128201000Y-62591258D01*
X128201000Y-62768742D01*
X128197307Y-62787306D01*
X128166376Y-62942812D01*
X128098456Y-63106784D01*
X127999853Y-63254354D01*
X127874354Y-63379853D01*
X127726784Y-63478456D01*
X127562812Y-63546376D01*
X127413512Y-63576073D01*
X127388742Y-63581000D01*
X127211258Y-63581000D01*
X127186488Y-63576073D01*
X127037188Y-63546376D01*
X126873216Y-63478456D01*
X126725646Y-63379853D01*
X126600147Y-63254354D01*
X126501544Y-63106784D01*
X126433624Y-62942812D01*
X126402693Y-62787306D01*
X126399000Y-62768742D01*
X126399000Y-62591258D01*
X126403927Y-62566488D01*
X126433624Y-62417188D01*
X126501544Y-62253216D01*
X126600147Y-62105646D01*
X126725646Y-61980147D01*
X126873216Y-61881544D01*
X127037188Y-61813624D01*
X127186488Y-61783927D01*
X127211258Y-61779000D01*
X127388742Y-61779000D01*
X127413512Y-61783927D01*
G37*
G36*
X94723241Y-60704760D02*
G01*
X94987305Y-60814139D01*
X95224958Y-60972934D01*
X95427066Y-61175042D01*
X95585861Y-61412695D01*
X95695240Y-61676759D01*
X95751000Y-61957088D01*
X95751000Y-62242912D01*
X95695240Y-62523241D01*
X95585861Y-62787305D01*
X95427066Y-63024958D01*
X95224958Y-63227066D01*
X94987305Y-63385861D01*
X94723241Y-63495240D01*
X94442912Y-63551000D01*
X94157088Y-63551000D01*
X93876759Y-63495240D01*
X93612695Y-63385861D01*
X93375042Y-63227066D01*
X93172934Y-63024958D01*
X93014139Y-62787305D01*
X92904760Y-62523241D01*
X92849000Y-62242912D01*
X92849000Y-61957088D01*
X92904760Y-61676759D01*
X93014139Y-61412695D01*
X93172934Y-61175042D01*
X93375042Y-60972934D01*
X93612695Y-60814139D01*
X93876759Y-60704760D01*
X94157088Y-60649000D01*
X94442912Y-60649000D01*
X94723241Y-60704760D01*
G37*
G36*
X111165589Y-61938876D02*
G01*
X111264893Y-61958629D01*
X111405206Y-62016748D01*
X111531484Y-62101125D01*
X111638875Y-62208516D01*
X111723252Y-62334794D01*
X111781371Y-62475107D01*
X111811000Y-62624063D01*
X111811000Y-62775937D01*
X111781371Y-62924893D01*
X111723252Y-63065206D01*
X111638875Y-63191484D01*
X111531484Y-63298875D01*
X111405206Y-63383252D01*
X111264893Y-63441371D01*
X111165589Y-63461124D01*
X111115938Y-63471000D01*
X110964062Y-63471000D01*
X110914411Y-63461124D01*
X110815107Y-63441371D01*
X110674794Y-63383252D01*
X110548516Y-63298875D01*
X110441125Y-63191484D01*
X110356748Y-63065206D01*
X110298629Y-62924893D01*
X110269000Y-62775937D01*
X110269000Y-62624063D01*
X110298629Y-62475107D01*
X110356748Y-62334794D01*
X110441125Y-62208516D01*
X110548516Y-62101125D01*
X110674794Y-62016748D01*
X110815107Y-61958629D01*
X110914411Y-61938876D01*
X110964062Y-61929000D01*
X111115938Y-61929000D01*
X111165589Y-61938876D01*
G37*
G36*
X108625589Y-61938876D02*
G01*
X108724893Y-61958629D01*
X108865206Y-62016748D01*
X108991484Y-62101125D01*
X109098875Y-62208516D01*
X109183252Y-62334794D01*
X109241371Y-62475107D01*
X109271000Y-62624063D01*
X109271000Y-62775937D01*
X109241371Y-62924893D01*
X109183252Y-63065206D01*
X109098875Y-63191484D01*
X108991484Y-63298875D01*
X108865206Y-63383252D01*
X108724893Y-63441371D01*
X108625589Y-63461124D01*
X108575938Y-63471000D01*
X108424062Y-63471000D01*
X108374411Y-63461124D01*
X108275107Y-63441371D01*
X108134794Y-63383252D01*
X108008516Y-63298875D01*
X107901125Y-63191484D01*
X107816748Y-63065206D01*
X107758629Y-62924893D01*
X107729000Y-62775937D01*
X107729000Y-62624063D01*
X107758629Y-62475107D01*
X107816748Y-62334794D01*
X107901125Y-62208516D01*
X108008516Y-62101125D01*
X108134794Y-62016748D01*
X108275107Y-61958629D01*
X108374411Y-61938876D01*
X108424062Y-61929000D01*
X108575938Y-61929000D01*
X108625589Y-61938876D01*
G37*
G36*
X106085589Y-61938876D02*
G01*
X106184893Y-61958629D01*
X106325206Y-62016748D01*
X106451484Y-62101125D01*
X106558875Y-62208516D01*
X106643252Y-62334794D01*
X106701371Y-62475107D01*
X106731000Y-62624063D01*
X106731000Y-62775937D01*
X106701371Y-62924893D01*
X106643252Y-63065206D01*
X106558875Y-63191484D01*
X106451484Y-63298875D01*
X106325206Y-63383252D01*
X106184893Y-63441371D01*
X106085589Y-63461124D01*
X106035938Y-63471000D01*
X105884062Y-63471000D01*
X105834411Y-63461124D01*
X105735107Y-63441371D01*
X105594794Y-63383252D01*
X105468516Y-63298875D01*
X105361125Y-63191484D01*
X105276748Y-63065206D01*
X105218629Y-62924893D01*
X105189000Y-62775937D01*
X105189000Y-62624063D01*
X105218629Y-62475107D01*
X105276748Y-62334794D01*
X105361125Y-62208516D01*
X105468516Y-62101125D01*
X105594794Y-62016748D01*
X105735107Y-61958629D01*
X105834411Y-61938876D01*
X105884062Y-61929000D01*
X106035938Y-61929000D01*
X106085589Y-61938876D01*
G37*
G36*
X116423241Y-59604760D02*
G01*
X116687305Y-59714139D01*
X116924958Y-59872934D01*
X117127066Y-60075042D01*
X117285861Y-60312695D01*
X117395240Y-60576759D01*
X117451000Y-60857088D01*
X117451000Y-61142912D01*
X117395240Y-61423241D01*
X117285861Y-61687305D01*
X117127066Y-61924958D01*
X116924958Y-62127066D01*
X116687305Y-62285861D01*
X116423241Y-62395240D01*
X116142912Y-62451000D01*
X115857088Y-62451000D01*
X115576759Y-62395240D01*
X115312695Y-62285861D01*
X115075042Y-62127066D01*
X114872934Y-61924958D01*
X114714139Y-61687305D01*
X114604760Y-61423241D01*
X114549000Y-61142912D01*
X114549000Y-60857088D01*
X114604760Y-60576759D01*
X114714139Y-60312695D01*
X114872934Y-60075042D01*
X115075042Y-59872934D01*
X115312695Y-59714139D01*
X115576759Y-59604760D01*
X115857088Y-59549000D01*
X116142912Y-59549000D01*
X116423241Y-59604760D01*
G37*
G36*
X127413512Y-59243927D02*
G01*
X127562812Y-59273624D01*
X127726784Y-59341544D01*
X127874354Y-59440147D01*
X127999853Y-59565646D01*
X128098456Y-59713216D01*
X128166376Y-59877188D01*
X128201000Y-60051259D01*
X128201000Y-60228741D01*
X128166376Y-60402812D01*
X128098456Y-60566784D01*
X127999853Y-60714354D01*
X127874354Y-60839853D01*
X127726784Y-60938456D01*
X127562812Y-61006376D01*
X127413512Y-61036073D01*
X127388742Y-61041000D01*
X127211258Y-61041000D01*
X127186488Y-61036073D01*
X127037188Y-61006376D01*
X126873216Y-60938456D01*
X126725646Y-60839853D01*
X126600147Y-60714354D01*
X126501544Y-60566784D01*
X126433624Y-60402812D01*
X126399000Y-60228741D01*
X126399000Y-60051259D01*
X126433624Y-59877188D01*
X126501544Y-59713216D01*
X126600147Y-59565646D01*
X126725646Y-59440147D01*
X126873216Y-59341544D01*
X127037188Y-59273624D01*
X127186488Y-59243927D01*
X127211258Y-59239000D01*
X127388742Y-59239000D01*
X127413512Y-59243927D01*
G37*
G36*
X123413512Y-59243927D02*
G01*
X123562812Y-59273624D01*
X123726784Y-59341544D01*
X123874354Y-59440147D01*
X123999853Y-59565646D01*
X124098456Y-59713216D01*
X124166376Y-59877188D01*
X124201000Y-60051259D01*
X124201000Y-60228741D01*
X124166376Y-60402812D01*
X124098456Y-60566784D01*
X123999853Y-60714354D01*
X123874354Y-60839853D01*
X123726784Y-60938456D01*
X123562812Y-61006376D01*
X123413512Y-61036073D01*
X123388742Y-61041000D01*
X123211258Y-61041000D01*
X123186488Y-61036073D01*
X123037188Y-61006376D01*
X122873216Y-60938456D01*
X122725646Y-60839853D01*
X122600147Y-60714354D01*
X122501544Y-60566784D01*
X122433624Y-60402812D01*
X122399000Y-60228741D01*
X122399000Y-60051259D01*
X122433624Y-59877188D01*
X122501544Y-59713216D01*
X122600147Y-59565646D01*
X122725646Y-59440147D01*
X122873216Y-59341544D01*
X123037188Y-59273624D01*
X123186488Y-59243927D01*
X123211258Y-59239000D01*
X123388742Y-59239000D01*
X123413512Y-59243927D01*
G37*
G36*
X51075880Y-54909776D02*
G01*
X51456593Y-54985504D01*
X51866249Y-55155189D01*
X52234929Y-55401534D01*
X52548466Y-55715071D01*
X52794811Y-56083751D01*
X52964496Y-56493407D01*
X53051000Y-56928296D01*
X53051000Y-57371704D01*
X52964496Y-57806593D01*
X52794811Y-58216249D01*
X52548466Y-58584929D01*
X52234929Y-58898466D01*
X51866249Y-59144811D01*
X51456593Y-59314496D01*
X51075880Y-59390224D01*
X51021705Y-59401000D01*
X50578295Y-59401000D01*
X50524120Y-59390224D01*
X50143407Y-59314496D01*
X49733751Y-59144811D01*
X49365071Y-58898466D01*
X49051534Y-58584929D01*
X48805189Y-58216249D01*
X48635504Y-57806593D01*
X48549000Y-57371704D01*
X48549000Y-56928296D01*
X48635504Y-56493407D01*
X48805189Y-56083751D01*
X49051534Y-55715071D01*
X49365071Y-55401534D01*
X49733751Y-55155189D01*
X50143407Y-54985504D01*
X50524120Y-54909776D01*
X50578295Y-54899000D01*
X51021705Y-54899000D01*
X51075880Y-54909776D01*
G37*
G36*
X124201000Y-58501000D02*
G01*
X122399000Y-58501000D01*
X122399000Y-56699000D01*
X124201000Y-56699000D01*
X124201000Y-58501000D01*
G37*
G36*
X128201000Y-58501000D02*
G01*
X126399000Y-58501000D01*
X126399000Y-56699000D01*
X128201000Y-56699000D01*
X128201000Y-58501000D01*
G37*
G36*
X93963512Y-53953927D02*
G01*
X94112812Y-53983624D01*
X94276784Y-54051544D01*
X94424354Y-54150147D01*
X94549853Y-54275646D01*
X94648456Y-54423216D01*
X94716376Y-54587188D01*
X94751000Y-54761259D01*
X94751000Y-54938741D01*
X94716376Y-55112812D01*
X94648456Y-55276784D01*
X94549853Y-55424354D01*
X94424354Y-55549853D01*
X94276784Y-55648456D01*
X94112812Y-55716376D01*
X93963512Y-55746073D01*
X93938742Y-55751000D01*
X93761258Y-55751000D01*
X93736488Y-55746073D01*
X93587188Y-55716376D01*
X93423216Y-55648456D01*
X93275646Y-55549853D01*
X93150147Y-55424354D01*
X93051544Y-55276784D01*
X92983624Y-55112812D01*
X92949000Y-54938741D01*
X92949000Y-54761259D01*
X92983624Y-54587188D01*
X93051544Y-54423216D01*
X93150147Y-54275646D01*
X93275646Y-54150147D01*
X93423216Y-54051544D01*
X93587188Y-53983624D01*
X93736488Y-53953927D01*
X93761258Y-53949000D01*
X93938742Y-53949000D01*
X93963512Y-53953927D01*
G37*
G36*
X56613512Y-52683927D02*
G01*
X56762812Y-52713624D01*
X56926784Y-52781544D01*
X57074354Y-52880147D01*
X57199853Y-53005646D01*
X57298456Y-53153216D01*
X57366376Y-53317188D01*
X57401000Y-53491259D01*
X57401000Y-53668741D01*
X57366376Y-53842812D01*
X57298456Y-54006784D01*
X57199853Y-54154354D01*
X57074354Y-54279853D01*
X56926784Y-54378456D01*
X56762812Y-54446376D01*
X56613512Y-54476073D01*
X56588742Y-54481000D01*
X56411258Y-54481000D01*
X56386488Y-54476073D01*
X56237188Y-54446376D01*
X56073216Y-54378456D01*
X55925646Y-54279853D01*
X55800147Y-54154354D01*
X55701544Y-54006784D01*
X55633624Y-53842812D01*
X55599000Y-53668741D01*
X55599000Y-53491259D01*
X55633624Y-53317188D01*
X55701544Y-53153216D01*
X55800147Y-53005646D01*
X55925646Y-52880147D01*
X56073216Y-52781544D01*
X56237188Y-52713624D01*
X56386488Y-52683927D01*
X56411258Y-52679000D01*
X56588742Y-52679000D01*
X56613512Y-52683927D01*
G37*
G36*
X93963512Y-51413927D02*
G01*
X94112812Y-51443624D01*
X94276784Y-51511544D01*
X94424354Y-51610147D01*
X94549853Y-51735646D01*
X94648456Y-51883216D01*
X94716376Y-52047188D01*
X94751000Y-52221259D01*
X94751000Y-52398741D01*
X94716376Y-52572812D01*
X94648456Y-52736784D01*
X94549853Y-52884354D01*
X94424354Y-53009853D01*
X94276784Y-53108456D01*
X94112812Y-53176376D01*
X93963512Y-53206073D01*
X93938742Y-53211000D01*
X93761258Y-53211000D01*
X93736488Y-53206073D01*
X93587188Y-53176376D01*
X93423216Y-53108456D01*
X93275646Y-53009853D01*
X93150147Y-52884354D01*
X93051544Y-52736784D01*
X92983624Y-52572812D01*
X92949000Y-52398741D01*
X92949000Y-52221259D01*
X92983624Y-52047188D01*
X93051544Y-51883216D01*
X93150147Y-51735646D01*
X93275646Y-51610147D01*
X93423216Y-51511544D01*
X93587188Y-51443624D01*
X93736488Y-51413927D01*
X93761258Y-51409000D01*
X93938742Y-51409000D01*
X93963512Y-51413927D01*
G37*
G36*
X51075880Y-48559776D02*
G01*
X51456593Y-48635504D01*
X51866249Y-48805189D01*
X52234929Y-49051534D01*
X52548466Y-49365071D01*
X52794811Y-49733751D01*
X52964496Y-50143407D01*
X53051000Y-50578296D01*
X53051000Y-51021704D01*
X52964496Y-51456593D01*
X52794811Y-51866249D01*
X52548466Y-52234929D01*
X52234929Y-52548466D01*
X51866249Y-52794811D01*
X51456593Y-52964496D01*
X51075880Y-53040224D01*
X51021705Y-53051000D01*
X50578295Y-53051000D01*
X50524120Y-53040224D01*
X50143407Y-52964496D01*
X49733751Y-52794811D01*
X49365071Y-52548466D01*
X49051534Y-52234929D01*
X48805189Y-51866249D01*
X48635504Y-51456593D01*
X48549000Y-51021704D01*
X48549000Y-50578296D01*
X48635504Y-50143407D01*
X48805189Y-49733751D01*
X49051534Y-49365071D01*
X49365071Y-49051534D01*
X49733751Y-48805189D01*
X50143407Y-48635504D01*
X50524120Y-48559776D01*
X50578295Y-48549000D01*
X51021705Y-48549000D01*
X51075880Y-48559776D01*
G37*
G36*
X130223241Y-50004760D02*
G01*
X130487305Y-50114139D01*
X130724958Y-50272934D01*
X130927066Y-50475042D01*
X131085861Y-50712695D01*
X131195240Y-50976759D01*
X131251000Y-51257088D01*
X131251000Y-51542912D01*
X131195240Y-51823241D01*
X131085861Y-52087305D01*
X130927066Y-52324958D01*
X130724958Y-52527066D01*
X130487305Y-52685861D01*
X130223241Y-52795240D01*
X129942912Y-52851000D01*
X129657088Y-52851000D01*
X129376759Y-52795240D01*
X129112695Y-52685861D01*
X128875042Y-52527066D01*
X128672934Y-52324958D01*
X128514139Y-52087305D01*
X128404760Y-51823241D01*
X128349000Y-51542912D01*
X128349000Y-51257088D01*
X128404760Y-50976759D01*
X128514139Y-50712695D01*
X128672934Y-50475042D01*
X128875042Y-50272934D01*
X129112695Y-50114139D01*
X129376759Y-50004760D01*
X129657088Y-49949000D01*
X129942912Y-49949000D01*
X130223241Y-50004760D01*
G37*
G36*
X56610897Y-50143407D02*
G01*
X56762812Y-50173624D01*
X56926784Y-50241544D01*
X57074354Y-50340147D01*
X57199853Y-50465646D01*
X57298456Y-50613216D01*
X57366376Y-50777188D01*
X57401000Y-50951259D01*
X57401000Y-51128741D01*
X57366376Y-51302812D01*
X57298456Y-51466784D01*
X57199853Y-51614354D01*
X57074354Y-51739853D01*
X56926784Y-51838456D01*
X56762812Y-51906376D01*
X56613512Y-51936073D01*
X56588742Y-51941000D01*
X56411258Y-51941000D01*
X56386488Y-51936073D01*
X56237188Y-51906376D01*
X56073216Y-51838456D01*
X55925646Y-51739853D01*
X55800147Y-51614354D01*
X55701544Y-51466784D01*
X55633624Y-51302812D01*
X55599000Y-51128741D01*
X55599000Y-50951259D01*
X55633624Y-50777188D01*
X55701544Y-50613216D01*
X55800147Y-50465646D01*
X55925646Y-50340147D01*
X56073216Y-50241544D01*
X56237188Y-50173624D01*
X56389103Y-50143407D01*
X56411258Y-50139000D01*
X56588742Y-50139000D01*
X56610897Y-50143407D01*
G37*
G36*
X94751000Y-50671000D02*
G01*
X92949000Y-50671000D01*
X92949000Y-48869000D01*
X94751000Y-48869000D01*
X94751000Y-50671000D01*
G37*
G36*
X57401000Y-49401000D02*
G01*
X55599000Y-49401000D01*
X55599000Y-47599000D01*
X57401000Y-47599000D01*
X57401000Y-49401000D01*
G37*
G36*
X126413512Y-46233927D02*
G01*
X126562812Y-46263624D01*
X126726784Y-46331544D01*
X126874354Y-46430147D01*
X126999853Y-46555646D01*
X127098456Y-46703216D01*
X127166376Y-46867188D01*
X127201000Y-47041259D01*
X127201000Y-47218741D01*
X127166376Y-47392812D01*
X127098456Y-47556784D01*
X126999853Y-47704354D01*
X126874354Y-47829853D01*
X126726784Y-47928456D01*
X126562812Y-47996376D01*
X126413512Y-48026073D01*
X126388742Y-48031000D01*
X126211258Y-48031000D01*
X126186488Y-48026073D01*
X126037188Y-47996376D01*
X125873216Y-47928456D01*
X125725646Y-47829853D01*
X125600147Y-47704354D01*
X125501544Y-47556784D01*
X125433624Y-47392812D01*
X125399000Y-47218741D01*
X125399000Y-47041259D01*
X125433624Y-46867188D01*
X125501544Y-46703216D01*
X125600147Y-46555646D01*
X125725646Y-46430147D01*
X125873216Y-46331544D01*
X126037188Y-46263624D01*
X126186488Y-46233927D01*
X126211258Y-46229000D01*
X126388742Y-46229000D01*
X126413512Y-46233927D01*
G37*
G36*
X51075880Y-42209776D02*
G01*
X51456593Y-42285504D01*
X51866249Y-42455189D01*
X52234929Y-42701534D01*
X52548466Y-43015071D01*
X52794811Y-43383751D01*
X52964496Y-43793407D01*
X53015336Y-44049000D01*
X53051000Y-44228295D01*
X53051000Y-44671705D01*
X53044253Y-44705622D01*
X52964496Y-45106593D01*
X52794811Y-45516249D01*
X52548466Y-45884929D01*
X52234929Y-46198466D01*
X51866249Y-46444811D01*
X51456593Y-46614496D01*
X51075880Y-46690224D01*
X51021705Y-46701000D01*
X50578295Y-46701000D01*
X50524120Y-46690224D01*
X50143407Y-46614496D01*
X49733751Y-46444811D01*
X49365071Y-46198466D01*
X49051534Y-45884929D01*
X48805189Y-45516249D01*
X48635504Y-45106593D01*
X48555747Y-44705622D01*
X48549000Y-44671705D01*
X48549000Y-44228295D01*
X48584664Y-44049000D01*
X48635504Y-43793407D01*
X48805189Y-43383751D01*
X49051534Y-43015071D01*
X49365071Y-42701534D01*
X49733751Y-42455189D01*
X50143407Y-42285504D01*
X50524120Y-42209776D01*
X50578295Y-42199000D01*
X51021705Y-42199000D01*
X51075880Y-42209776D01*
G37*
G36*
X126413512Y-43693927D02*
G01*
X126562812Y-43723624D01*
X126726784Y-43791544D01*
X126874354Y-43890147D01*
X126999853Y-44015646D01*
X127098456Y-44163216D01*
X127166376Y-44327188D01*
X127201000Y-44501259D01*
X127201000Y-44678741D01*
X127166376Y-44852812D01*
X127098456Y-45016784D01*
X126999853Y-45164354D01*
X126874354Y-45289853D01*
X126726784Y-45388456D01*
X126562812Y-45456376D01*
X126413512Y-45486073D01*
X126388742Y-45491000D01*
X126211258Y-45491000D01*
X126186488Y-45486073D01*
X126037188Y-45456376D01*
X125873216Y-45388456D01*
X125725646Y-45289853D01*
X125600147Y-45164354D01*
X125501544Y-45016784D01*
X125433624Y-44852812D01*
X125399000Y-44678741D01*
X125399000Y-44501259D01*
X125433624Y-44327188D01*
X125501544Y-44163216D01*
X125600147Y-44015646D01*
X125725646Y-43890147D01*
X125873216Y-43791544D01*
X126037188Y-43723624D01*
X126186488Y-43693927D01*
X126211258Y-43689000D01*
X126388742Y-43689000D01*
X126413512Y-43693927D01*
G37*
G36*
X101923241Y-41904760D02*
G01*
X102187305Y-42014139D01*
X102424958Y-42172934D01*
X102627066Y-42375042D01*
X102785861Y-42612695D01*
X102895240Y-42876759D01*
X102951000Y-43157088D01*
X102951000Y-43442912D01*
X102895240Y-43723241D01*
X102785861Y-43987305D01*
X102627066Y-44224958D01*
X102424958Y-44427066D01*
X102187305Y-44585861D01*
X101923241Y-44695240D01*
X101642912Y-44751000D01*
X101357088Y-44751000D01*
X101076759Y-44695240D01*
X100812695Y-44585861D01*
X100575042Y-44427066D01*
X100372934Y-44224958D01*
X100214139Y-43987305D01*
X100104760Y-43723241D01*
X100049000Y-43442912D01*
X100049000Y-43157088D01*
X100104760Y-42876759D01*
X100214139Y-42612695D01*
X100372934Y-42375042D01*
X100575042Y-42172934D01*
X100812695Y-42014139D01*
X101076759Y-41904760D01*
X101357088Y-41849000D01*
X101642912Y-41849000D01*
X101923241Y-41904760D01*
G37*
G36*
X95723241Y-40804760D02*
G01*
X95987305Y-40914139D01*
X96224958Y-41072934D01*
X96427066Y-41275042D01*
X96585861Y-41512695D01*
X96695240Y-41776759D01*
X96751000Y-42057088D01*
X96751000Y-42342912D01*
X96695240Y-42623241D01*
X96585861Y-42887305D01*
X96427066Y-43124958D01*
X96224958Y-43327066D01*
X95987305Y-43485861D01*
X95723241Y-43595240D01*
X95442912Y-43651000D01*
X95157088Y-43651000D01*
X94876759Y-43595240D01*
X94612695Y-43485861D01*
X94375042Y-43327066D01*
X94172934Y-43124958D01*
X94014139Y-42887305D01*
X93904760Y-42623241D01*
X93849000Y-42342912D01*
X93849000Y-42057088D01*
X93904760Y-41776759D01*
X94014139Y-41512695D01*
X94172934Y-41275042D01*
X94375042Y-41072934D01*
X94612695Y-40914139D01*
X94876759Y-40804760D01*
X95157088Y-40749000D01*
X95442912Y-40749000D01*
X95723241Y-40804760D01*
G37*
G36*
X127201000Y-42951000D02*
G01*
X125399000Y-42951000D01*
X125399000Y-41149000D01*
X127201000Y-41149000D01*
X127201000Y-42951000D01*
G37*
G36*
X89923241Y-37604760D02*
G01*
X90187305Y-37714139D01*
X90424958Y-37872934D01*
X90627066Y-38075042D01*
X90785861Y-38312695D01*
X90895240Y-38576759D01*
X90951000Y-38857088D01*
X90951000Y-39142912D01*
X90895240Y-39423241D01*
X90785861Y-39687305D01*
X90627066Y-39924958D01*
X90424958Y-40127066D01*
X90187305Y-40285861D01*
X89923241Y-40395240D01*
X89642912Y-40451000D01*
X89357088Y-40451000D01*
X89076759Y-40395240D01*
X88812695Y-40285861D01*
X88575042Y-40127066D01*
X88372934Y-39924958D01*
X88214139Y-39687305D01*
X88104760Y-39423241D01*
X88049000Y-39142912D01*
X88049000Y-38857088D01*
X88104760Y-38576759D01*
X88214139Y-38312695D01*
X88372934Y-38075042D01*
X88575042Y-37872934D01*
X88812695Y-37714139D01*
X89076759Y-37604760D01*
X89357088Y-37549000D01*
X89642912Y-37549000D01*
X89923241Y-37604760D01*
G37*
G36*
X130223241Y-36204760D02*
G01*
X130487305Y-36314139D01*
X130724958Y-36472934D01*
X130927066Y-36675042D01*
X131085861Y-36912695D01*
X131195240Y-37176759D01*
X131251000Y-37457088D01*
X131251000Y-37742912D01*
X131195240Y-38023241D01*
X131085861Y-38287305D01*
X130927066Y-38524958D01*
X130724958Y-38727066D01*
X130487305Y-38885861D01*
X130223241Y-38995240D01*
X129942912Y-39051000D01*
X129657088Y-39051000D01*
X129376759Y-38995240D01*
X129112695Y-38885861D01*
X128875042Y-38727066D01*
X128672934Y-38524958D01*
X128514139Y-38287305D01*
X128404760Y-38023241D01*
X128349000Y-37742912D01*
X128349000Y-37457088D01*
X128404760Y-37176759D01*
X128514139Y-36912695D01*
X128672934Y-36675042D01*
X128875042Y-36472934D01*
X129112695Y-36314139D01*
X129376759Y-36204760D01*
X129657088Y-36149000D01*
X129942912Y-36149000D01*
X130223241Y-36204760D01*
G37*
G36*
X93251000Y-35151000D02*
G01*
X91449000Y-35151000D01*
X91449000Y-33349000D01*
X93251000Y-33349000D01*
X93251000Y-35151000D01*
G37*
G36*
X92463512Y-30813927D02*
G01*
X92612812Y-30843624D01*
X92776784Y-30911544D01*
X92924354Y-31010147D01*
X93049853Y-31135646D01*
X93148456Y-31283216D01*
X93216376Y-31447188D01*
X93251000Y-31621259D01*
X93251000Y-31798741D01*
X93216376Y-31972812D01*
X93148456Y-32136784D01*
X93049853Y-32284354D01*
X92924354Y-32409853D01*
X92776784Y-32508456D01*
X92612812Y-32576376D01*
X92463512Y-32606073D01*
X92438742Y-32611000D01*
X92261258Y-32611000D01*
X92236488Y-32606073D01*
X92087188Y-32576376D01*
X91923216Y-32508456D01*
X91775646Y-32409853D01*
X91650147Y-32284354D01*
X91551544Y-32136784D01*
X91483624Y-31972812D01*
X91449000Y-31798741D01*
X91449000Y-31621259D01*
X91483624Y-31447188D01*
X91551544Y-31283216D01*
X91650147Y-31135646D01*
X91775646Y-31010147D01*
X91923216Y-30911544D01*
X92087188Y-30843624D01*
X92236488Y-30813927D01*
X92261258Y-30809000D01*
X92438742Y-30809000D01*
X92463512Y-30813927D01*
G37*
G36*
X130634239Y-21811467D02*
G01*
X130948282Y-21873934D01*
X131539926Y-22119001D01*
X132072392Y-22474784D01*
X132525216Y-22927608D01*
X132880999Y-23460074D01*
X133126066Y-24051718D01*
X133126066Y-24051719D01*
X133251000Y-24679803D01*
X133251000Y-25320197D01*
X133188533Y-25634239D01*
X133126066Y-25948282D01*
X132880999Y-26539926D01*
X132525216Y-27072392D01*
X132072392Y-27525216D01*
X131539926Y-27880999D01*
X130948282Y-28126066D01*
X130634239Y-28188533D01*
X130320197Y-28251000D01*
X129679803Y-28251000D01*
X129365761Y-28188533D01*
X129051718Y-28126066D01*
X128460074Y-27880999D01*
X127927608Y-27525216D01*
X127474784Y-27072392D01*
X127119001Y-26539926D01*
X126873934Y-25948282D01*
X126811467Y-25634239D01*
X126749000Y-25320197D01*
X126749000Y-24679803D01*
X126873934Y-24051719D01*
X126873934Y-24051718D01*
X127119001Y-23460074D01*
X127474784Y-22927608D01*
X127927608Y-22474784D01*
X128460074Y-22119001D01*
X129051718Y-21873934D01*
X129365761Y-21811467D01*
X129679803Y-21749000D01*
X130320197Y-21749000D01*
X130634239Y-21811467D01*
G37*
G36*
X45634239Y-21811467D02*
G01*
X45948282Y-21873934D01*
X46539926Y-22119001D01*
X47072392Y-22474784D01*
X47525216Y-22927608D01*
X47880999Y-23460074D01*
X48126066Y-24051718D01*
X48126066Y-24051719D01*
X48251000Y-24679803D01*
X48251000Y-25320197D01*
X48188533Y-25634239D01*
X48126066Y-25948282D01*
X47880999Y-26539926D01*
X47525216Y-27072392D01*
X47072392Y-27525216D01*
X46539926Y-27880999D01*
X45948282Y-28126066D01*
X45634239Y-28188533D01*
X45320197Y-28251000D01*
X44679803Y-28251000D01*
X44365761Y-28188533D01*
X44051718Y-28126066D01*
X43460074Y-27880999D01*
X42927608Y-27525216D01*
X42474784Y-27072392D01*
X42119001Y-26539926D01*
X41873934Y-25948282D01*
X41811467Y-25634239D01*
X41749000Y-25320197D01*
X41749000Y-24679803D01*
X41873934Y-24051719D01*
X41873934Y-24051718D01*
X42119001Y-23460074D01*
X42474784Y-22927608D01*
X42927608Y-22474784D01*
X43460074Y-22119001D01*
X44051718Y-21873934D01*
X44365761Y-21811467D01*
X44679803Y-21749000D01*
X45320197Y-21749000D01*
X45634239Y-21811467D01*
G37*
M02*
